<?xml version="1.0" standalone="no"?>
<!DOCTYPE svg PUBLIC "-//W3C//DTD SVG 20010904//EN"
 "http://www.w3.org/TR/2001/REC-SVG-20010904/DTD/svg10.dtd">
<svg version="1.0" xmlns="http://www.w3.org/2000/svg"
 width="2256.000000pt" height="1500.000000pt" viewBox="0 0 2256.000000 1500.000000"
 preserveAspectRatio="xMidYMid meet">

<g transform="translate(0.000000,1500.000000) scale(0.100000,-0.100000)"
fill="#000000" stroke="none">
<path d="M0 14209 c0 -781 0 -791 19 -778 11 8 44 32 73 55 29 23 73 52 98 65
25 13 47 26 50 29 5 6 88 40 180 75 47 18 215 44 287 45 45 0 146 -31 201 -62
17 -10 49 -28 70 -39 81 -46 142 -96 170 -140 48 -73 112 -203 128 -261 9 -29
25 -87 36 -128 18 -61 22 -104 22 -230 1 -85 -4 -188 -10 -227 -7 -49 -7 -76
0 -83 7 -7 7 -10 -1 -10 -12 0 -53 -107 -53 -139 0 -11 -4 -21 -10 -21 -5 0
-10 -19 -10 -41 0 -37 -2 -40 -16 -28 -13 11 -15 11 -13 -2 3 -20 -22 -69 -36
-69 -6 0 -23 -23 -37 -50 -16 -30 -29 -45 -32 -38 -3 7 -3 3 0 -10 6 -25 -12
-55 -28 -46 -6 4 -14 0 -19 -7 -6 -10 -2 -16 14 -21 20 -5 19 -6 -5 -7 -23 -1
-28 -6 -28 -26 0 -16 6 -25 15 -25 8 0 15 -7 15 -15 0 -8 -9 -15 -20 -15 -11
0 -20 4 -20 9 0 5 -12 8 -27 7 -26 -3 -27 -6 -24 -50 2 -36 -1 -46 -13 -46 -9
0 -16 -4 -16 -10 0 -15 11 -12 32 7 17 15 18 15 18 -5 0 -30 24 -28 38 3 9 19
19 25 42 25 17 0 30 5 30 13 1 6 9 2 19 -10 11 -13 29 -23 40 -23 17 0 21 -7
22 -32 1 -18 3 -25 6 -15 6 21 46 23 67 2 8 -8 17 -15 20 -15 3 0 6 7 6 15 0
8 5 15 10 15 6 0 10 -4 10 -10 0 -5 7 -10 15 -10 7 0 19 -8 24 -17 10 -17 10
-17 11 0 0 9 4 17 10 17 5 0 7 -21 3 -51 -5 -46 -4 -51 16 -56 20 -5 22 -10
16 -44 -5 -31 -4 -39 8 -39 9 0 17 -11 20 -27 l4 -28 2 28 c1 23 5 27 31 27
17 0 30 -5 30 -12 0 -9 3 -9 9 1 7 11 10 9 13 -8 7 -45 23 -19 28 43 3 44 11
71 23 83 16 16 17 14 17 -49 0 -37 -5 -70 -10 -73 -6 -3 -10 -19 -10 -35 0
-16 -4 -32 -10 -35 -5 -3 -10 -22 -10 -41 0 -19 -3 -34 -7 -34 -8 0 -33 -48
-33 -63 0 -5 -9 -20 -20 -34 -11 -14 -20 -34 -20 -44 0 -11 -4 -19 -8 -19 -4
0 -22 -24 -40 -53 -17 -29 -49 -71 -69 -93 -21 -23 -52 -56 -69 -75 -18 -19
-47 -46 -65 -61 -19 -15 -58 -48 -88 -73 -30 -25 -64 -45 -75 -45 -28 0 -47
-41 -31 -64 7 -9 19 -16 28 -16 20 0 32 -129 22 -240 -6 -69 -10 -80 -26 -80
-10 0 -19 7 -19 15 0 11 -11 15 -40 15 -36 0 -40 -2 -40 -25 0 -25 1 -25 80
-25 l80 0 0 -30 c0 -25 -4 -30 -24 -30 -13 0 -26 -7 -30 -15 -3 -8 -10 -15
-16 -15 -5 0 -10 7 -10 15 0 10 -10 15 -30 15 -27 0 -30 -3 -30 -34 0 -30 4
-35 30 -41 46 -10 39 -35 -10 -35 -36 0 -40 -2 -40 -25 0 -25 -1 -25 -80 -25
l-80 0 0 30 0 30 80 0 c47 0 80 4 80 10 0 6 -18 10 -40 10 l-40 0 0 40 c0 33
-3 40 -20 40 -17 0 -20 -7 -20 -40 l0 -40 -60 0 c-33 0 -60 -4 -60 -10 0 -16
-149 -13 -166 4 -16 16 -19 86 -4 86 6 0 10 18 10 40 l0 40 -40 0 -40 0 0 40
0 40 -40 0 -40 0 0 120 c0 111 -1 120 -19 120 -10 0 -21 8 -25 18 -3 9 -9 24
-12 32 -5 13 -4 13 5 0 9 -12 11 -11 11 8 0 12 -5 22 -12 22 -6 0 -28 19 -50
42 -30 33 -38 49 -38 80 0 33 -3 38 -23 38 -19 0 -27 8 -37 40 -7 22 -19 40
-25 40 -13 0 -32 146 -21 157 3 4 6 -12 6 -35 0 -36 3 -42 21 -42 21 0 21 3
16 60 -4 33 -4 87 0 120 5 50 9 60 24 60 12 0 19 7 19 18 0 10 9 25 20 35 17
14 20 28 19 76 -2 65 -9 73 -83 86 -20 4 -36 11 -36 16 0 5 -19 9 -42 9 -23 0
-39 3 -35 6 8 9 -48 54 -67 54 -15 0 -16 -331 -16 -3966 l0 -3966 23 -19 c19
-16 20 -20 7 -28 -12 -8 -11 -14 10 -35 29 -32 38 -32 42 -5 3 20 6 19 40 -14
30 -28 38 -43 38 -71 0 -32 3 -36 25 -36 23 0 25 -4 25 -40 0 -29 4 -40 15
-40 8 0 15 9 15 20 0 24 13 26 31 3 11 -13 11 -17 1 -20 -7 -3 -12 -21 -12
-44 0 -32 3 -39 20 -39 17 0 20 7 20 40 0 22 5 40 10 40 6 0 10 -7 10 -15 0
-8 11 -25 25 -39 18 -19 25 -36 25 -66 0 -22 -4 -40 -10 -40 -6 0 -10 -33 -10
-80 0 -47 4 -80 10 -80 6 0 10 -100 10 -280 0 -180 -4 -280 -10 -280 -5 0 -10
-18 -10 -40 0 -29 -4 -40 -15 -40 -9 0 -15 -9 -15 -22 0 -12 -7 -30 -17 -40
-15 -17 -15 -19 0 -36 14 -15 17 -40 17 -120 0 -80 3 -102 14 -102 9 0 16 -21
21 -72 3 -40 9 -77 13 -83 3 -5 5 -26 3 -47 -2 -29 1 -38 13 -38 24 0 19 -18
-12 -46 -18 -17 -23 -27 -14 -31 7 -3 12 -24 12 -54 0 -40 5 -53 25 -71 14
-12 25 -32 25 -44 0 -13 5 -26 10 -29 5 -3 10 -15 10 -26 0 -12 7 -19 20 -19
12 0 20 -7 20 -17 1 -22 29 -57 53 -66 9 -3 20 -15 23 -24 14 -43 31 -68 56
-82 16 -9 28 -24 28 -33 0 -11 8 -18 18 -18 9 0 23 -9 30 -20 7 -12 20 -19 28
-18 9 2 21 -6 28 -16 19 -33 60 -65 83 -66 25 0 39 -16 21 -23 -8 -3 -6 -6 4
-6 10 -1 17 -7 15 -13 -1 -9 15 -13 56 -13 32 0 54 -1 48 -3 -19 -6 -12 -40 9
-47 11 -3 20 -13 20 -21 0 -7 9 -19 20 -26 22 -14 27 -44 8 -50 -9 -3 -9 -6 0
-12 7 -4 12 -2 12 3 0 7 25 11 61 11 51 0 64 -4 80 -22 l18 -23 1 23 c0 13 6
22 15 22 11 0 15 -11 15 -37 0 -31 5 -40 25 -50 22 -10 25 -9 25 9 0 10 5 16
10 13 13 -8 13 -55 0 -55 -21 0 -8 -36 18 -48 48 -24 52 -24 52 -8 0 9 -8 16
-20 16 -11 0 -20 5 -20 10 0 6 9 10 20 10 11 0 20 -4 20 -8 0 -5 18 -28 40
-52 34 -37 40 -40 40 -22 0 19 6 22 40 22 29 0 40 -4 40 -15 0 -8 5 -15 10
-15 6 0 15 -11 20 -25 11 -29 45 -45 96 -45 19 0 34 -4 34 -10 0 -5 -18 -10
-40 -10 -22 0 -40 -4 -40 -10 0 -5 18 -10 40 -10 22 0 40 5 40 10 0 6 9 10 20
10 11 0 20 -7 20 -15 0 -12 13 -15 60 -15 33 0 60 -4 60 -10 0 -5 18 -10 40
-10 22 0 40 5 40 10 0 6 18 10 40 10 38 0 40 2 40 30 0 28 3 30 38 30 28 1 41
7 55 25 15 22 16 25 2 25 -8 0 -15 7 -15 15 0 11 11 15 40 15 22 0 40 5 40 10
0 6 18 10 40 10 29 0 40 4 40 15 0 24 17 17 24 -10 8 -32 24 -32 32 0 5 20 12
25 37 25 17 0 39 -7 49 -17 17 -15 18 -14 18 18 1 30 2 32 14 17 7 -10 25 -18
40 -18 19 0 26 -5 26 -19 0 -16 11 -20 80 -26 58 -5 80 -11 80 -21 0 -21 33
-17 48 6 7 11 21 20 31 20 10 0 24 7 31 15 7 8 21 15 31 15 11 0 19 6 19 13 0
13 40 43 54 39 4 -2 24 7 43 18 29 17 45 19 99 14 35 -4 64 -10 64 -14 0 -14
68 -40 104 -40 20 0 36 -4 36 -10 0 -5 6 -10 14 -10 7 0 19 -7 27 -16 7 -9 21
-13 32 -10 11 3 28 1 37 -4 10 -5 32 -12 50 -15 18 -3 38 -9 44 -13 6 -3 18
-7 26 -7 9 0 14 -8 12 -20 -2 -16 6 -24 31 -33 18 -7 40 -12 48 -12 8 0 27
-15 43 -32 20 -23 31 -29 34 -20 3 10 17 2 43 -24 22 -21 39 -33 39 -26 0 7
15 12 37 12 35 0 36 1 17 15 -19 14 -19 14 2 15 11 0 29 -7 40 -15 15 -11 16
-14 4 -15 -11 0 -17 -11 -18 -35 -3 -41 9 -45 36 -10 23 29 81 35 102 10 8 -9
30 -15 56 -15 32 0 44 -4 44 -15 0 -9 9 -15 25 -15 27 0 76 -19 88 -35 6 -7
10 -6 14 3 4 10 33 12 139 6 98 -5 134 -4 134 5 0 7 37 11 124 10 71 0 134 4
145 10 27 15 52 14 50 -1 -5 -41 1 -48 41 -48 22 0 40 5 40 10 0 6 19 11 43
12 l42 1 -45 7 -45 7 43 1 c34 2 46 -3 64 -24 13 -14 23 -33 23 -42 0 -9 8
-18 18 -20 12 -2 17 3 17 17 0 18 6 21 39 21 39 0 80 -28 53 -37 -6 -3 -12
-13 -12 -24 0 -16 7 -19 40 -19 22 0 40 -4 40 -10 0 -5 7 -10 15 -10 8 0 15
-4 15 -10 0 -5 -7 -10 -15 -10 -8 0 -15 -7 -15 -15 0 -9 9 -15 25 -15 16 0 25
-6 25 -15 0 -8 7 -15 15 -15 28 0 15 -20 -12 -21 -25 0 -26 -1 -8 -8 11 -5 35
-23 54 -40 18 -17 44 -31 57 -31 15 0 24 -6 24 -15 0 -8 -4 -15 -10 -15 -5 0
-10 -11 -10 -25 0 -14 4 -25 8 -25 5 0 16 -16 25 -36 10 -19 12 -32 6 -28 -14
9 10 -38 25 -48 6 -4 30 -4 53 -1 41 5 43 5 43 -21 0 -21 5 -26 25 -26 14 0
25 -4 25 -10 0 -16 61 -80 91 -96 23 -12 112 -14 534 -14 498 0 505 0 505 20
0 11 5 20 10 20 6 0 10 -9 10 -20 0 -19 7 -20 90 -20 83 0 90 1 90 20 0 16 7
20 30 20 23 0 30 -4 30 -20 0 -20 7 -20 5304 -20 5295 0 5304 0 5309 20 7 26
27 26 27 0 0 -19 7 -20 225 -20 218 0 225 1 225 20 0 11 -4 20 -10 20 -5 0 -7
6 -5 13 3 6 -2 30 -9 52 -11 30 -19 40 -35 39 -12 -1 -21 4 -21 11 0 8 -9 10
-25 7 -22 -4 -25 -1 -25 25 0 24 -4 29 -21 29 -12 -1 -24 5 -26 12 -3 8 6 12
26 12 23 0 31 -5 32 -17 0 -11 3 -13 6 -5 2 6 11 12 19 12 12 0 12 4 4 20 -8
16 -8 24 4 35 18 18 36 19 36 3 1 -17 60 52 60 69 0 7 5 13 10 13 6 0 10 -6
10 -13 0 -8 7 -14 15 -14 8 0 15 9 15 19 0 10 -7 21 -15 24 -8 4 -15 12 -15
18 0 7 -12 17 -27 23 l-28 11 28 1 c33 1 34 7 5 32 -25 20 -58 25 -58 9 0 -5
-4 -10 -9 -10 -14 0 -6 33 10 39 8 3 15 16 16 29 3 23 -12 30 -20 10 -4 -9
-17 -1 -38 22 -20 21 -40 34 -52 32 -11 -2 -25 6 -34 17 -8 12 -25 21 -39 21
-28 0 -32 15 -6 29 14 9 12 10 -15 11 -22 0 -33 6 -38 19 -4 13 -19 21 -53 26
-26 3 -57 13 -69 21 -12 8 -33 14 -46 14 -12 0 -28 5 -33 10 -12 12 -125 42
-132 35 -9 -9 -31 16 -26 30 3 7 -5 20 -18 29 -28 20 -38 20 -38 1 0 -18 -8
-18 -40 0 -14 7 -36 11 -50 9 -33 -6 -59 11 -43 27 10 10 8 15 -10 26 -12 7
-29 15 -38 19 -9 3 -22 17 -28 30 -6 13 -19 24 -30 24 -11 0 -35 9 -53 19 -18
11 -50 23 -70 26 -21 4 -38 12 -38 19 0 6 -17 19 -37 28 -32 13 -39 14 -41 2
-2 -8 -7 -14 -12 -14 -14 0 -64 24 -71 34 -4 5 -23 6 -43 2 -24 -5 -45 -2 -65
9 -16 8 -36 12 -44 9 -9 -3 -16 3 -20 15 -3 12 -1 19 4 15 5 -3 9 0 9 5 0 14
-29 14 -69 0 -28 -10 -33 -9 -51 14 -11 13 -32 27 -48 30 -17 4 -38 19 -52 40
-22 32 -43 48 -82 63 -10 3 -18 10 -18 15 0 14 -90 49 -126 49 -19 0 -34 5
-34 10 0 6 -18 10 -40 10 -29 0 -40 4 -40 15 0 11 -11 15 -40 15 -22 0 -40 -4
-40 -10 0 -5 -18 -10 -40 -10 -29 0 -40 4 -40 15 0 8 -4 15 -9 15 -5 0 -28 26
-52 58 -24 31 -47 58 -51 60 -5 2 -8 21 -8 43 0 21 -4 39 -10 39 -5 0 -10 18
-10 40 0 22 -4 40 -10 40 -5 0 -10 9 -10 19 0 11 -4 23 -10 26 -6 3 -10 48
-10 101 0 56 4 94 10 94 6 0 10 18 10 39 0 22 5 41 11 43 7 2 13 59 17 161 2
86 8 157 12 157 4 0 11 33 14 73 4 39 10 83 13 97 6 22 7 23 13 5 6 -18 9 -16
24 13 10 19 15 40 12 49 -3 8 1 28 10 45 13 25 13 32 3 39 -11 6 -9 16 9 47
16 29 22 56 22 100 0 41 5 63 15 72 11 9 15 34 15 96 0 49 4 84 10 84 6 0 10
33 10 80 0 47 -4 80 -10 80 -5 0 -10 18 -10 39 l0 40 -57 -5 c-32 -2 -52 -1
-46 2 7 3 13 24 13 46 l0 41 -92 -6 c-51 -3 -81 -3 -65 0 24 4 27 9 27 44 0
21 -4 39 -9 39 -5 0 -12 36 -16 80 -4 44 -11 80 -16 80 -5 0 -9 -11 -9 -25 0
-22 -4 -25 -38 -25 -37 0 -82 22 -82 41 0 5 9 9 20 9 11 0 20 7 20 15 0 11
-11 15 -40 15 -33 0 -40 3 -40 20 0 17 -7 20 -40 20 -39 0 -40 1 -40 35 0 34
-1 35 -40 35 -22 0 -40 5 -40 10 0 6 18 10 40 10 29 0 40 4 40 15 0 11 -11 15
-40 15 -36 0 -40 3 -40 25 0 20 -5 25 -25 25 -22 0 -25 4 -25 39 0 42 -13 51
-77 51 -18 0 -33 4 -33 10 0 5 -11 21 -25 35 -22 21 -35 25 -80 25 l-55 0 0
45 0 45 -40 0 c-22 0 -40 5 -40 10 0 6 -18 10 -40 10 -38 0 -40 2 -40 30 0 28
-2 30 -40 30 -33 0 -40 3 -40 20 0 17 -7 20 -40 20 -29 0 -40 4 -40 15 0 11
-11 15 -40 15 -27 0 -40 4 -40 14 0 16 -68 92 -80 89 -5 -2 -22 11 -39 27 -16
17 -39 30 -50 30 -18 0 -21 6 -21 40 l0 40 -65 0 -65 0 0 39 c0 29 5 40 17 43
15 3 15 4 0 17 -15 12 -17 11 -17 -3 0 -9 -7 -16 -15 -16 -11 0 -15 11 -15 40
0 36 -2 40 -25 40 -20 0 -25 5 -25 24 0 14 -4 28 -10 31 -5 3 -10 14 -10 23 0
9 -32 48 -70 85 -39 37 -70 73 -70 79 0 11 -64 78 -75 78 -3 0 -5 -8 -5 -17 0
-14 -2 -15 -12 -4 -10 11 -10 14 0 18 6 3 12 11 12 19 0 10 -12 14 -38 14 -31
0 -41 5 -52 25 -7 14 -22 25 -32 25 -14 0 -18 8 -18 39 l0 38 -47 -4 c-45 -5
-50 -3 -90 37 -24 23 -43 46 -43 51 0 5 -17 9 -38 9 -45 0 -116 55 -91 71 12
7 11 11 -4 26 -14 14 -19 15 -26 5 -6 -9 -15 -6 -37 15 l-29 28 35 6 35 6 -42
2 c-37 1 -43 -2 -43 -20 0 -11 -4 -17 -10 -14 -5 3 -10 14 -10 24 0 10 -11 28
-26 41 -21 21 -27 22 -35 10 -8 -13 -12 -12 -28 8 -11 12 -26 22 -35 22 -10 0
-16 9 -16 25 0 23 -4 25 -40 25 -22 0 -40 5 -40 10 0 6 -15 10 -32 10 -65 0
-78 9 -78 51 0 22 -5 39 -11 39 -8 0 -10 17 -7 51 4 42 2 53 -13 62 -11 7 -19
20 -19 29 0 13 -8 18 -25 18 -22 0 -25 4 -25 40 0 50 -27 57 -32 9 l-3 -31
-29 27 c-23 21 -26 29 -15 36 12 7 11 11 -4 26 -14 14 -19 15 -26 5 -6 -9 -15
-6 -36 14 -22 21 -25 28 -14 35 12 7 11 11 -4 26 -13 13 -20 15 -25 6 -9 -14
-52 15 -55 37 -4 22 -17 41 -25 36 -11 -6 -53 28 -55 44 -2 8 -7 21 -12 29 -7
12 -10 11 -16 -5 -5 -13 -8 -7 -8 24 -1 35 -4 42 -21 42 -17 0 -20 7 -20 39 0
35 3 40 28 44 15 3 6 4 -20 4 l-48 -2 0 37 c0 21 -4 38 -10 38 -5 0 -10 18
-10 40 0 33 -4 40 -19 40 -21 0 -81 52 -85 72 -6 36 -32 58 -68 58 -22 0 -38
5 -38 12 0 6 -18 29 -40 50 -35 34 -40 45 -40 84 0 38 -3 44 -22 44 -12 0 -30
7 -40 17 -11 9 -18 11 -18 5 0 -7 -16 -12 -40 -12 -33 0 -40 -3 -40 -20 0 -17
-7 -20 -39 -20 -22 0 -41 4 -43 9 -1 5 -35 12 -74 16 l-71 7 -10 -79 c-8 -57
-10 -63 -7 -20 4 59 -6 72 -28 37 -7 -11 -18 -20 -25 -20 -8 0 -13 -14 -13
-38 l0 -37 -45 3 c-41 4 -45 2 -45 -18 0 -12 -10 -30 -22 -41 -19 -15 -21 -20
-9 -28 12 -8 9 -15 -17 -37 -18 -16 -32 -34 -32 -40 0 -7 -16 -28 -35 -47 -34
-34 -35 -37 -37 -118 -1 -46 -3 -65 -5 -41 -5 53 -23 55 -23 2 0 -29 -4 -40
-15 -40 -11 0 -15 -11 -15 -38 0 -21 -7 -47 -15 -58 -8 -10 -15 -27 -15 -37 0
-10 -16 -34 -36 -53 -35 -32 -37 -38 -38 -99 -1 -55 -5 -68 -24 -81 -28 -20
-28 -34 1 -35 15 0 8 -5 -21 -16 -38 -13 -43 -19 -39 -39 3 -18 0 -24 -14 -24
-15 0 -19 -8 -19 -40 0 -36 -2 -40 -25 -40 -22 0 -25 -4 -25 -40 0 -36 -2 -40
-25 -40 -22 0 -25 -4 -25 -40 0 -29 -4 -40 -15 -40 -9 0 -15 -9 -15 -25 0 -22
-4 -25 -40 -25 -38 0 -40 -1 -40 -33 0 -21 -7 -36 -20 -45 -11 -7 -20 -21 -20
-32 0 -11 -9 -25 -20 -32 -11 -7 -20 -18 -20 -25 0 -8 -13 -13 -32 -13 -65 0
-78 -9 -78 -51 l0 -39 -65 0 -65 0 0 -40 0 -40 -40 0 -40 0 0 -41 0 -41 44 3
c24 2 42 0 39 -4 -3 -5 -41 -6 -84 -2 -69 6 -79 5 -79 -9 0 -12 -10 -16 -40
-16 -36 0 -40 -3 -40 -24 0 -21 6 -25 38 -29 32 -3 31 -4 -8 -3 -36 0 -51 -5
-75 -28 l-30 -28 -3 31 c-5 45 -22 38 -22 -9 0 -36 3 -40 25 -40 23 0 25 -4
25 -40 l0 -40 -55 0 -55 0 0 -34 c0 -34 -1 -35 -42 -39 l-43 -4 43 -1 c23 -1
42 -6 42 -12 0 -6 -60 -10 -160 -10 -130 0 -160 -3 -160 -14 0 -9 -15 -15 -47
-18 -39 -3 -50 1 -72 22 -54 52 -55 52 -99 29 -22 -12 -68 -46 -102 -75 -34
-30 -65 -54 -71 -54 -5 0 -9 -6 -9 -13 0 -8 -14 -13 -36 -14 -20 -1 -39 -5
-43 -10 -7 -10 -66 -36 -90 -39 -9 -1 -32 -7 -51 -14 -19 -6 -64 -16 -100 -20
-36 -5 -87 -13 -115 -17 -83 -14 -315 5 -397 33 -52 17 -56 21 -33 38 13 10
13 14 0 40 -19 35 -19 47 0 82 20 38 19 108 -1 125 -13 11 -13 14 0 21 8 4 20
24 26 43 6 19 17 35 24 35 12 0 46 50 46 69 0 6 -13 24 -30 39 -30 29 -39 52
-20 52 6 0 24 15 40 34 17 19 41 37 55 40 13 3 40 22 59 42 19 20 39 33 45 30
5 -4 13 -1 18 6 12 19 52 36 103 44 27 5 37 9 25 12 -45 9 -55 31 -55 114 0
62 3 78 15 78 8 0 21 13 30 30 8 16 27 37 41 47 24 16 26 21 20 70 -5 44 -4
52 9 47 10 -4 15 0 15 14 0 13 -9 22 -25 26 -21 5 -25 12 -25 46 0 33 -3 40
-20 40 -17 0 -20 7 -20 40 0 25 -5 40 -13 40 -7 0 -18 9 -25 20 -7 11 -20 20
-30 20 -23 0 -42 19 -42 42 0 10 -9 23 -20 30 -11 7 -20 21 -20 30 0 11 -8 18
-20 18 -14 0 -20 7 -20 23 0 13 -9 32 -20 42 -19 18 -20 17 -20 -4 0 -28 -21
-23 -36 8 -7 12 -28 34 -48 47 -20 14 -36 31 -36 39 0 7 -9 16 -19 20 -12 3
-21 17 -23 33 -2 15 -10 28 -18 28 -8 1 -25 2 -37 3 -17 1 -23 7 -23 24 0 21
-18 36 -62 53 -10 3 -18 12 -18 19 0 7 -13 18 -30 25 -16 7 -30 20 -31 29 0
10 -2 11 -6 4 -8 -22 -33 -14 -70 23 -33 33 -40 36 -78 31 -23 -4 -46 -2 -51
3 -6 6 -38 13 -72 16 -34 4 -62 11 -62 15 0 5 -15 9 -34 9 -19 0 -53 9 -76 19
-24 11 -49 17 -56 14 -23 -9 -92 38 -104 71 l-11 31 -20 -24 c-14 -17 -19 -19
-19 -8 0 17 -12 22 -76 32 -26 4 -51 16 -65 32 l-24 26 25 -12 25 -12 -22 20
c-13 10 -23 30 -23 44 0 13 -9 31 -20 38 -11 8 -22 25 -25 38 -2 13 -6 24 -7
25 -59 35 -75 56 -43 56 19 0 20 46 1 53 -13 5 -22 36 -30 101 -3 16 -11 33
-20 38 -9 5 -16 18 -16 28 0 11 -4 20 -10 20 -5 0 -10 16 -10 36 0 27 -7 42
-31 64 -43 39 -98 46 -176 21 -139 -44 -428 -53 -560 -16 -158 45 -227 77
-328 153 -58 44 -181 168 -199 201 -5 9 -20 29 -33 45 -36 43 -100 175 -130
269 -25 74 -27 96 -27 232 0 106 4 168 16 210 9 33 19 80 23 105 23 159 158
368 306 475 30 22 56 43 59 47 3 4 22 14 42 22 20 9 39 20 43 26 3 5 15 10 26
10 11 0 22 6 25 14 3 8 21 17 40 20 19 4 58 18 86 31 29 14 63 25 75 25 12 0
28 6 35 13 28 28 87 39 169 32 55 -5 79 -4 79 4 0 13 63 15 88 2 33 -17 89
-31 123 -31 25 0 30 -3 19 -10 -10 -6 2 -7 38 -3 44 5 52 3 52 -11 0 -12 9
-16 38 -16 36 0 154 -50 167 -70 10 -15 35 -12 35 5 0 23 20 18 43 -11 18 -23
21 -24 30 -9 8 15 11 13 23 -10 8 -15 14 -33 14 -40 0 -8 11 -22 25 -33 14
-11 25 -29 25 -41 0 -12 5 -21 10 -21 6 0 10 5 10 10 0 6 11 10 25 10 14 0 25
5 25 11 0 5 5 7 10 4 6 -3 10 3 10 14 0 35 11 53 25 41 9 -8 15 -8 20 0 3 5 1
10 -4 10 -20 0 -11 32 9 37 20 5 29 43 9 43 -5 0 -7 5 -3 11 4 8 9 7 16 -2 8
-12 10 -12 15 0 8 21 66 71 81 71 6 0 12 9 15 21 3 11 15 23 26 26 12 3 21 12
21 19 0 8 5 15 10 15 20 3 25 5 48 19 12 8 22 21 22 29 0 11 3 11 15 1 20 -17
46 -6 38 16 -6 15 -1 16 33 11 21 -4 33 -3 26 2 -17 10 6 31 40 35 46 6 88 19
88 27 0 4 -17 10 -37 12 -21 2 -14 3 15 1 31 -1 78 5 115 16 34 10 74 21 88
24 23 5 26 11 25 38 -1 26 -6 33 -21 33 -14 0 -21 8 -23 28 -3 26 -1 27 37 27
32 0 41 4 41 18 0 21 42 62 64 62 10 0 16 9 16 25 0 23 4 25 40 25 36 0 40 3
40 25 0 23 4 25 40 25 38 0 40 -1 40 -32 l0 -31 122 6 c66 4 138 7 160 7 27 0
38 4 38 15 0 12 -13 15 -56 15 -40 0 -54 3 -51 13 2 8 20 11 55 9 33 -3 52 0
52 7 0 6 18 11 40 11 33 0 40 3 40 19 0 16 -8 21 -42 24 l-43 4 43 1 c41 2 42
3 42 37 l0 35 55 0 55 0 0 38 c0 37 22 82 41 82 5 0 9 -27 9 -60 0 -33 4 -60
10 -60 6 0 10 20 10 45 0 37 5 51 28 72 l27 25 3 -31 c2 -23 8 -31 23 -31 16
0 19 7 19 40 l0 40 50 0 50 0 0 40 c0 22 5 40 10 40 6 0 10 18 10 40 0 29 4
40 15 40 11 0 15 11 15 40 0 29 -4 40 -15 40 -11 0 -15 11 -15 40 0 36 3 40
25 40 19 0 25 5 25 21 0 17 4 20 23 15 12 -3 37 -6 55 -6 l32 0 0 -55 c0 -48
2 -55 20 -55 17 0 20 7 20 40 0 22 5 40 10 40 6 0 10 18 10 40 0 22 5 40 10
40 6 0 10 -18 10 -40 l0 -40 55 0 55 0 0 40 c0 36 3 40 25 40 25 0 25 1 25 80
0 64 -3 80 -15 80 -11 0 -15 11 -15 40 0 36 -2 40 -25 40 -22 0 -25 -4 -25
-40 0 -29 4 -40 15 -40 12 0 15 -16 15 -80 0 -79 0 -80 -25 -80 -22 0 -25 4
-25 40 0 22 5 40 10 40 6 0 10 18 10 40 l0 40 -40 0 -40 0 0 -40 c0 -22 -4
-40 -10 -40 -5 0 -10 18 -10 40 0 38 -2 40 -30 40 -28 0 -30 2 -30 40 l0 40
-40 0 -40 0 0 40 0 40 -50 0 -50 0 0 -40 c0 -38 -2 -40 -30 -40 -28 0 -30 2
-30 40 0 36 -2 40 -25 40 -22 0 -25 -4 -25 -40 0 -28 -4 -40 -14 -40 -10 0
-16 -13 -19 -37 -2 -21 -3 -14 -1 15 l3 52 -40 0 c-32 0 -39 3 -39 20 0 17 -7
20 -42 22 -37 1 -39 2 -10 5 42 6 44 33 2 33 -25 0 -30 4 -30 25 0 23 -4 25
-45 25 l-45 0 0 40 c0 33 3 40 20 40 18 0 20 7 20 80 0 47 4 80 10 80 13 0 13
27 -1 35 -6 4 -13 -2 -16 -14 -3 -14 -13 -21 -29 -21 -21 0 -24 -5 -24 -40 0
-36 -2 -40 -25 -40 -22 0 -25 4 -26 38 -3 89 -7 114 -20 123 -11 7 -11 9 4 9
9 0 17 5 17 10 0 6 -7 10 -15 10 -9 0 -15 9 -15 25 0 14 -3 25 -7 25 -5 0 -29
19 -56 43 -40 37 -47 49 -47 80 0 26 -4 37 -15 37 -11 0 -15 11 -15 40 0 22
-4 40 -10 40 -5 0 -10 18 -10 40 0 22 -5 40 -10 40 -6 0 -9 32 -8 83 2 45 -1
117 -6 160 l-8 77 31 0 c30 0 31 2 31 40 0 22 -4 40 -10 40 -5 0 -10 18 -10
40 0 22 5 40 10 40 6 0 10 5 10 10 0 6 -18 10 -40 10 -33 0 -40 3 -40 20 0 17
7 20 40 20 22 0 40 5 40 10 0 6 -11 10 -25 10 -22 0 -25 4 -25 40 l0 40 50 0
c56 0 62 9 24 39 -19 15 -28 33 -31 65 -8 63 5 136 23 136 10 0 14 12 14 40 0
54 -27 56 -33 3 -2 -21 -3 -1 -3 43 1 56 4 80 12 77 8 -3 14 23 19 76 6 70 10
81 26 81 15 0 19 8 20 43 1 23 3 34 6 25 6 -24 83 -26 83 -3 0 8 9 15 20 15
21 0 40 27 40 59 0 12 6 21 13 21 7 0 30 18 51 39 l39 40 -34 3 -34 3 35 33
c26 24 44 32 75 34 l40 1 -45 7 -45 7 43 1 c35 2 42 5 42 22 0 17 7 20 40 20
28 0 40 4 40 14 0 8 -6 16 -12 19 -10 4 -10 7 0 18 10 11 12 10 12 -4 0 -24 7
-21 42 13 16 17 33 28 38 25 4 -3 13 2 20 10 7 8 23 15 36 15 15 0 24 6 24 15
0 11 11 15 38 15 37 0 82 22 82 41 0 5 -9 9 -20 9 -11 0 -20 5 -20 11 0 8 29
10 95 7 73 -3 95 -1 95 9 0 7 11 13 25 13 14 0 25 -4 25 -10 0 -23 18 -8 24
20 4 24 11 30 30 30 15 0 26 -7 28 -17 3 -15 4 -15 17 0 12 15 11 17 -3 17 -9
0 -16 5 -16 10 0 6 18 10 40 10 30 0 40 4 40 16 0 13 7 15 34 11 50 -8 75 2
82 32 13 51 44 70 44 26 0 -32 5 -31 42 5 16 17 33 28 38 25 4 -3 13 2 20 10
7 8 23 15 36 15 13 0 24 6 24 13 0 14 58 39 71 31 5 -3 9 4 9 15 0 12 5 21 10
21 6 0 21 11 33 24 17 19 29 23 54 19 19 -3 33 -12 35 -22 3 -11 8 -6 18 17
17 38 38 46 88 38 35 -6 36 -6 17 9 -17 14 -18 17 -5 25 8 5 22 10 31 10 9 0
22 7 29 15 7 9 29 15 51 15 22 0 39 5 39 11 0 6 14 22 30 36 17 13 30 33 30
43 0 10 5 22 10 25 6 3 10 -1 10 -9 0 -23 8 -20 42 14 16 17 33 28 38 25 4 -3
13 2 20 10 10 12 9 15 -4 15 -9 0 -16 5 -16 10 0 6 6 10 14 10 27 0 84 64 91
103 8 42 27 48 43 15 9 -20 11 -17 11 25 l1 47 40 0 40 0 0 55 c0 42 3 55 15
55 11 0 15 11 15 40 0 29 -4 40 -15 40 -9 0 -15 9 -15 23 0 13 -4 27 -9 32 -4
6 -5 33 -1 60 l7 50 2 -42 c1 -31 5 -43 16 -43 12 0 15 16 15 80 0 64 -3 80
-15 80 -11 0 -15 12 -15 45 l0 45 -40 0 c-53 0 -51 18 3 23 l42 4 -42 1 c-35
2 -43 6 -43 21 0 11 7 21 17 23 15 3 15 4 0 17 -15 12 -17 11 -17 -3 0 -12
-10 -16 -46 -16 l-47 0 6 55 6 55 -37 0 c-27 0 -41 6 -51 22 -10 16 -10 23 -2
26 19 6 12 32 -9 32 -11 0 -20 -7 -20 -15 0 -8 -9 -15 -20 -15 -13 0 -20 7
-20 20 0 22 -23 25 -118 11 -48 -7 -55 -5 -80 18 -22 21 -36 25 -77 24 -44 -1
-46 -1 -15 6 34 6 34 7 13 19 -12 6 -45 12 -73 12 -41 0 -56 5 -76 25 l-25 25
-519 0 c-435 0 -520 -2 -520 -14 0 -7 7 -19 15 -26 20 -16 76 -136 87 -185 32
-142 39 -217 35 -350 -4 -136 -5 -143 -43 -235 -22 -52 -64 -131 -93 -175 -58
-87 -230 -265 -255 -265 -9 0 -16 -4 -16 -10 0 -9 -15 -18 -114 -72 -47 -26
-195 -79 -248 -89 -27 -5 -72 -13 -100 -19 -71 -13 -338 -20 -338 -9 0 5 -9 9
-20 9 -12 0 -32 7 -45 16 -18 12 -29 13 -38 6 -7 -6 -23 -8 -36 -5 l-23 6 23
13 c22 12 23 13 5 20 -11 4 -21 2 -26 -6 -11 -17 -45 -8 -44 13 1 9 -4 18 -12
18 -8 1 -18 2 -23 3 -5 0 -18 11 -29 24 l-20 22 -5 -21 c-9 -34 -32 -17 -30
22 2 28 1 30 -6 13 -12 -28 -56 -28 -84 0 -12 12 -33 39 -47 59 -14 20 -30 37
-36 37 -7 0 -14 9 -17 20 -3 11 -14 20 -25 20 -20 0 -32 33 -32 91 0 16 -4 29
-10 29 -5 0 -10 21 -10 48 0 26 -5 65 -11 87 -35 138 -39 174 -35 305 5 158
40 323 81 376 14 18 25 36 25 39 0 9 49 73 90 118 19 21 39 45 43 53 7 12
-551 14 -3998 14 l-4005 0 0 -791z m11197 329 c-2 -13 -4 -3 -4 22 0 25 2 35
4 23 2 -13 2 -33 0 -45z m-7889 -86 c2 -7 -3 -12 -12 -12 -9 0 -16 7 -16 16 0
17 22 14 28 -4z m-125 -9 c-13 -2 -33 -2 -45 0 -13 2 -3 4 22 4 25 0 35 -2 23
-4z m495 -53 c2 -5 21 -10 43 -10 22 0 39 -5 39 -11 0 -7 17 -10 45 -7 25 2
45 0 45 -4 0 -7 53 -38 65 -38 3 0 5 9 5 20 0 16 5 20 24 17 35 -4 61 -28 44
-39 -10 -7 -10 -8 2 -7 37 4 70 -2 82 -15 8 -8 23 -15 33 -17 10 -2 17 -8 16
-13 -4 -14 32 -32 37 -18 4 13 62 16 99 6 13 -4 20 -10 17 -15 -7 -11 3 -12
96 -10 41 1 126 -5 189 -14 140 -18 161 -19 161 -1 0 9 32 17 120 26 113 12
120 14 120 35 0 20 7 23 61 29 34 3 88 6 120 6 33 0 59 4 59 10 0 6 18 10 40
10 29 0 40 -4 40 -15 0 -23 16 -18 43 15 22 25 33 30 71 30 34 0 46 -4 46 -15
0 -11 12 -15 51 -15 31 0 48 -4 44 -10 -3 -6 5 -10 19 -10 13 0 32 -8 41 -17
14 -13 20 -14 34 -4 9 6 24 14 34 17 9 4 17 10 17 15 0 5 9 9 21 9 15 0 19 -5
15 -15 -4 -11 1 -15 19 -15 16 0 25 6 25 15 0 10 10 15 31 15 24 0 30 -4 25
-15 -3 -9 0 -15 9 -15 8 0 15 -4 15 -10 0 -5 18 -10 40 -10 29 0 40 4 40 15 0
11 11 15 36 15 31 0 35 -2 24 -15 -10 -12 -10 -15 4 -15 9 0 16 -7 16 -15 0
-11 12 -15 45 -15 60 0 85 -25 85 -82 0 -46 12 -74 27 -65 6 4 25 -9 43 -28
19 -19 40 -35 47 -35 9 0 13 -14 13 -41 0 -32 6 -47 30 -71 17 -16 30 -34 30
-39 0 -5 9 -9 20 -9 17 0 20 -7 20 -40 l0 -40 60 0 60 0 0 -30 c0 -28 2 -30
39 -30 45 0 65 -17 26 -22 -18 -2 -22 -6 -15 -17 6 -10 23 -14 55 -12 39 2 51
-2 70 -23 13 -15 33 -26 45 -26 11 0 20 -7 20 -15 0 -11 12 -15 45 -15 36 0
51 -5 69 -25 13 -14 28 -25 35 -25 6 0 11 -17 11 -40 0 -37 -2 -40 -27 -41
l-28 0 24 -12 c19 -9 25 -9 29 1 2 6 15 12 28 12 21 0 24 -4 24 -40 l0 -40 53
0 c48 0 56 -3 91 -39 l39 -39 26 24 c34 32 61 32 61 -1 0 -21 -5 -25 -29 -25
-36 0 -45 -26 -19 -52 12 -12 18 -33 18 -63 0 -33 4 -45 15 -45 9 0 15 9 15
25 0 16 6 25 15 25 9 0 15 -9 15 -25 0 -14 -4 -25 -10 -25 -5 0 -10 -18 -10
-40 0 -38 -2 -40 -30 -40 -28 0 -30 -2 -30 -40 0 -22 -4 -40 -10 -40 -5 0 -11
-19 -11 -42 -1 -24 -3 -35 -6 -25 -6 23 -83 25 -83 2 0 -11 -11 -15 -40 -15
-39 0 -40 -1 -40 -35 0 -34 -1 -35 -39 -35 -30 0 -47 -7 -74 -32 -30 -28 -40
-32 -81 -29 -36 2 -46 -1 -46 -13 0 -12 -10 -16 -40 -16 l-40 0 0 -40 0 -40
-40 0 c-33 0 -40 3 -40 20 0 11 -4 20 -10 20 -5 0 -15 -9 -22 -20 -7 -11 -18
-20 -25 -20 -6 0 -14 -6 -16 -12 -3 -7 -6 1 -6 19 -1 23 -5 31 -14 27 -15 -5
-19 -34 -6 -34 5 0 6 -7 3 -15 -4 -8 -12 -15 -18 -15 -7 0 -19 -12 -26 -27
-11 -23 -14 -25 -17 -10 -6 24 -59 23 -73 -2 -14 -28 -12 -36 5 -21 9 8 15 9
15 2 0 -14 -44 -45 -48 -34 -1 5 -16 6 -32 4 -21 -3 -30 -10 -30 -23 0 -11 -7
-19 -15 -19 -8 0 -26 -12 -41 -27 -21 -21 -25 -32 -21 -59 5 -26 2 -34 -13
-39 -16 -5 -18 -13 -13 -56 4 -33 2 -49 -6 -49 -6 0 -11 -18 -11 -44 0 -28 -7
-52 -19 -68 -15 -19 -19 -37 -17 -79 2 -30 1 -37 -1 -16 -6 49 -23 48 -23 -3
0 -22 -4 -40 -10 -40 -5 0 -10 -18 -10 -39 0 -22 -4 -41 -9 -43 -6 -1 -11 -24
-12 -49 -2 -41 1 -51 29 -79 18 -17 32 -39 32 -48 1 -26 36 -62 59 -62 18 0
21 -6 21 -40 0 -34 3 -40 21 -40 12 0 28 -8 35 -17 7 -10 16 -18 21 -18 36 -2
106 -45 73 -45 -6 0 -5 -8 2 -20 10 -15 24 -20 59 -20 26 0 63 -7 83 -15 22
-9 85 -18 152 -22 99 -5 114 -8 114 -23 0 -15 13 -19 75 -25 41 -3 79 -4 85 0
7 4 14 -2 17 -14 3 -12 13 -21 22 -21 9 0 22 -5 29 -12 9 -9 12 -9 12 0 0 9 9
8 35 -3 32 -13 37 -13 42 1 4 11 15 4 44 -27 22 -23 39 -37 39 -31 0 14 35 -3
60 -29 18 -20 96 -34 105 -19 8 13 25 13 25 0 0 -5 -5 -9 -12 -7 -6 1 -14 -6
-16 -15 -3 -14 3 -18 27 -18 20 0 35 -7 43 -20 9 -14 24 -20 50 -20 31 0 38
-4 38 -20 0 -17 7 -20 40 -20 29 0 40 -4 40 -15 0 -24 82 -95 110 -95 l25 0
-30 25 c-16 13 -25 24 -18 25 6 0 15 -4 18 -10 3 -5 17 -10 31 -10 16 0 24 -6
24 -18 0 -9 15 -30 34 -46 20 -16 32 -34 29 -42 -3 -8 0 -14 5 -14 6 0 13 10
15 23 2 12 5 3 6 -20 1 -40 3 -43 30 -43 29 0 91 -47 95 -72 1 -7 6 -19 11
-27 7 -12 10 -11 16 5 5 13 8 6 8 -24 1 -36 7 -50 36 -79 19 -19 35 -43 35
-54 0 -10 11 -29 23 -41 21 -21 24 -36 30 -143 5 -86 3 -121 -5 -126 -9 -6 -8
-12 1 -23 14 -17 16 -111 5 -225 -6 -57 -11 -69 -48 -108 -25 -26 -49 -43 -63
-43 -15 0 -23 -6 -23 -18 0 -9 -9 -23 -20 -30 -26 -16 -25 -30 3 -35 12 -2 2
-5 -22 -6 -35 -1 -50 -8 -78 -36 -40 -40 -43 -41 -43 -17 -1 12 -11 6 -35 -23
-26 -29 -37 -37 -43 -27 -9 13 -42 6 -42 -9 0 -4 -11 -20 -24 -34 -24 -26 -28
-27 -100 -20 -54 5 -76 4 -76 -4 0 -6 -17 -11 -40 -11 -22 0 -40 5 -40 10 0 6
-19 11 -42 11 -24 1 -33 4 -20 6 40 8 26 33 -18 33 -29 0 -40 -4 -40 -15 0 -8
-9 -15 -20 -15 -16 0 -20 -7 -20 -35 0 -34 -1 -35 -40 -35 -22 0 -40 5 -40 10
0 6 -18 10 -40 10 -36 0 -40 3 -40 25 0 23 -4 25 -40 25 -29 0 -40 -4 -40 -15
0 -11 -11 -15 -40 -15 -29 0 -40 4 -40 15 0 20 -37 19 -48 -2 -6 -10 -16 -14
-27 -9 -11 4 -26 0 -39 -12 -19 -17 -32 -18 -119 -13 -86 5 -101 9 -117 29
-10 12 -25 22 -33 22 -9 0 -17 4 -19 10 -1 5 -73 14 -158 20 -102 7 -162 16
-177 25 -29 20 -46 19 -91 -3 -38 -19 -132 -20 -132 -1 0 5 -36 9 -80 9 -68 0
-80 -3 -80 -17 0 -14 -2 -14 -20 2 -19 17 -21 17 -40 0 -11 -10 -20 -13 -20
-7 0 7 -16 12 -40 12 -33 0 -40 -3 -40 -20 0 -17 -7 -20 -40 -20 -22 0 -40 5
-40 10 0 6 -13 10 -30 10 -21 0 -30 -5 -30 -16 0 -15 -10 -16 -77 -10 -42 3
-100 6 -130 6 -35 0 -53 4 -53 13 -1 6 -20 21 -43 32 l-42 20 3 75 c2 53 7 77
17 83 9 5 15 23 15 47 0 35 -3 40 -24 40 -13 0 -26 7 -30 15 -3 8 -1 15 4 15
21 0 -30 38 -59 45 -35 7 -81 48 -81 70 0 8 -7 15 -15 15 -18 0 -65 47 -65 65
0 9 -10 15 -24 15 -14 0 -28 5 -31 10 -3 6 -1 10 6 10 8 0 8 4 -1 15 -7 8 -19
15 -27 15 -7 0 -16 7 -19 15 -4 8 -10 15 -16 15 -5 0 -25 12 -43 26 -28 21
-34 33 -33 58 3 55 -2 76 -16 76 -7 0 -17 -10 -20 -22 l-6 -23 -19 23 c-11 12
-24 22 -30 22 -5 0 -21 15 -34 33 -19 26 -23 41 -19 79 4 44 1 51 -32 84 -20
20 -36 41 -36 46 0 19 -68 78 -90 78 -12 0 -48 28 -90 71 -59 60 -69 75 -64
96 5 18 1 28 -15 39 -11 8 -21 24 -21 34 0 11 -9 25 -20 32 -11 7 -20 21 -20
30 0 11 -8 18 -19 18 -10 0 -21 7 -25 15 -3 8 -22 23 -43 33 -21 10 -37 24
-35 31 4 19 -17 41 -39 41 -10 0 -24 9 -31 20 -9 13 -24 20 -45 20 -31 0 -83
38 -83 61 0 15 -62 79 -74 77 -7 -2 -28 14 -48 35 -30 31 -43 37 -77 37 -30 0
-41 4 -41 15 0 8 -8 15 -18 15 -9 0 -23 9 -30 20 -7 11 -20 20 -30 20 -23 0
-42 19 -42 41 0 24 -29 47 -39 31 -5 -9 -19 -2 -45 23 -30 28 -45 35 -77 35
-32 0 -39 3 -39 20 0 17 -7 20 -45 20 -31 0 -47 5 -51 15 -4 9 -19 15 -40 15
-26 0 -42 8 -64 33 -24 26 -31 29 -39 18 -8 -12 -12 -12 -25 -2 -22 18 -20 29
7 34 12 2 3 5 -20 6 -42 1 -43 2 -43 36 0 34 -1 35 -40 35 -36 0 -40 3 -40 25
0 23 -4 25 -43 25 -38 0 -47 5 -72 35 -15 20 -34 34 -41 31 -7 -3 -17 8 -23
26 -14 41 -14 48 4 48 9 0 15 9 15 25 0 23 -4 25 -42 26 -24 1 -35 3 -25 6 22
6 25 73 2 73 -8 0 -15 -6 -15 -14 0 -8 -7 -17 -16 -20 -20 -8 -64 37 -64 65 0
11 -7 19 -17 20 -10 0 -4 6 14 12 24 9 30 16 24 26 -5 7 -14 10 -21 6 -13 -8
-52 23 -44 36 3 5 2 14 -1 19 -7 11 -35 -12 -35 -29 0 -6 -4 -11 -10 -11 -5 0
-10 7 -10 15 0 8 5 15 10 15 6 0 10 23 10 50 0 28 -4 50 -10 50 -5 0 -10 18
-10 40 0 22 -4 40 -10 40 -5 0 -10 18 -10 40 0 22 5 40 10 40 6 0 10 18 10 40
0 22 -4 40 -10 40 -6 0 -10 33 -10 80 0 47 4 80 10 80 6 0 10 18 10 39 0 30
-4 40 -17 43 -15 3 -14 7 10 29 26 25 27 31 27 118 0 71 3 91 14 91 10 0 16
22 21 80 6 69 10 80 26 80 15 0 19 7 19 40 0 29 4 40 15 40 11 0 15 11 15 40
0 34 -3 40 -21 40 -11 0 -17 5 -14 10 3 6 24 10 46 10 37 0 39 2 39 30 0 20 5
30 15 30 11 0 15 11 15 40 0 29 -4 40 -15 40 -8 0 -15 5 -15 10 0 6 17 10 38
10 29 1 43 8 62 30 13 17 32 30 42 30 14 0 18 8 18 40 0 29 4 40 15 40 11 0
15 11 15 40 0 34 -3 40 -21 40 -11 0 -17 5 -14 10 3 6 24 10 46 10 28 0 39 4
39 15 0 10 10 15 34 15 40 0 66 8 66 21 0 5 -9 9 -20 9 -17 0 -20 7 -20 40 0
22 5 40 10 40 6 0 10 -7 10 -15 0 -11 11 -15 40 -15 29 0 40 4 40 15 0 8 7 15
15 15 11 0 15 11 15 40 0 36 3 40 25 40 23 0 25 4 25 40 0 29 -4 40 -15 40
-21 0 -19 12 5 33 15 13 39 17 95 17 60 0 75 3 75 15 0 11 -11 15 -40 15 -22
0 -40 5 -40 10 0 6 18 10 40 10 22 0 40 -4 40 -10 0 -5 18 -10 40 -10 33 0 40
3 40 19 0 16 9 21 43 24 70 8 272 -2 275 -13z m-638 -240 c0 -34 -8 -37 -53
-13 l-32 16 30 13 c46 20 55 17 55 -16z m8076 -187 c-10 -10 -19 5 -10 18 6
11 8 11 12 0 2 -7 1 -15 -2 -18z m-276 -238 c0 -3 -14 -5 -31 -5 -27 0 -30 2
-19 15 9 11 17 12 31 4 10 -5 19 -12 19 -14z m-440 -155 c0 -5 -7 -10 -16 -10
-8 0 -12 5 -9 10 3 6 10 10 16 10 5 0 9 -4 9 -10z m-3320 -658 c0 -10 -22 -32
-32 -32 -4 0 -8 9 -8 20 0 13 7 20 20 20 11 0 20 -4 20 -8z m-180 -81 c0 -6
-4 -13 -10 -16 -5 -3 -10 1 -10 9 0 9 5 16 10 16 6 0 10 -4 10 -9z m2220 -51
c0 -13 -7 -20 -20 -20 -23 0 -26 10 -8 28 18 18 28 15 28 -8z m-6723 -162 c-2
-13 -4 -3 -4 22 0 25 2 35 4 23 2 -13 2 -33 0 -45z m3793 -188 c0 -5 -4 -10
-10 -10 -5 0 -10 5 -10 10 0 6 5 10 10 10 6 0 10 -4 10 -10z m-3680 -74 c0 -2
-7 -9 -15 -16 -12 -10 -15 -10 -15 4 0 9 7 16 15 16 8 0 15 -2 15 -4z m-1233
-48 c-3 -8 -6 -5 -6 6 -1 11 2 17 5 13 3 -3 4 -12 1 -19z m-91 -154 c-3 -9 -6
-20 -6 -25 0 -5 -4 -9 -9 -9 -4 0 -6 11 -3 25 2 14 9 25 14 25 6 0 7 -7 4 -16z
m174 -234 c0 -5 -9 -10 -20 -10 -11 0 -20 5 -20 10 0 6 9 10 20 10 11 0 20 -4
20 -10z m6 -88 c-11 -10 -15 4 -8 28 l7 25 3 -23 c2 -13 1 -26 -2 -30z m241
-14 c-2 -13 -4 -3 -4 22 0 25 2 35 4 23 2 -13 2 -33 0 -45z m1753 -114 c0 -8
-4 -12 -10 -9 -5 3 -10 10 -10 16 0 5 5 9 10 9 6 0 10 -7 10 -16z m-560 -503
c0 -5 -18 -17 -40 -27 -37 -16 -40 -21 -40 -56 0 -21 5 -38 11 -38 13 0 64 50
70 69 3 8 11 12 18 10 8 -3 4 -16 -15 -44 -14 -22 -19 -33 -10 -25 10 7 24 26
32 42 13 26 19 28 74 28 l60 0 0 -34 c0 -34 1 -35 43 -39 23 -2 5 -4 -40 -5
-46 -1 -83 -6 -83 -11 0 -5 -9 -11 -21 -14 -12 -3 -18 -10 -14 -16 8 -14 35
-14 35 -1 0 6 18 10 40 10 35 0 40 -3 40 -24 0 -21 5 -24 40 -24 26 -1 40 4
40 12 0 18 57 33 113 28 38 -3 47 -8 47 -23 0 -18 8 -19 124 -18 94 0 128 4
137 15 9 11 8 15 -5 20 -24 9 -19 24 9 24 22 0 29 -9 27 -32 -1 -3 5 -9 13
-12 8 -3 15 -1 15 5 0 12 43 1 48 -12 2 -5 8 -9 13 -9 13 0 99 -87 99 -100 0
-5 4 -10 8 -10 5 0 18 -20 30 -44 12 -24 29 -49 37 -56 8 -7 15 -20 15 -29 0
-9 11 -33 25 -53 14 -20 25 -45 25 -55 0 -10 7 -38 16 -63 26 -75 46 -208 51
-340 5 -138 -6 -161 -13 -28 -6 100 -7 109 -18 126 -4 7 -5 20 -2 28 9 23 -18
44 -58 44 -25 0 -36 4 -36 15 0 8 -6 15 -12 16 -10 0 -10 2 0 6 8 3 4 11 -13
25 -14 11 -25 28 -25 38 0 9 -7 23 -15 30 -13 10 -15 9 -15 -9 0 -11 -6 -21
-13 -21 -19 0 -51 37 -37 42 7 2 3 11 -9 22 -19 17 -21 17 -21 3 0 -13 -9 -17
-40 -17 -29 0 -40 4 -40 15 0 11 -11 15 -40 15 -38 0 -40 -2 -40 -30 0 -28 2
-30 40 -30 22 0 40 -4 40 -10 0 -5 -18 -10 -40 -10 -29 0 -40 -4 -40 -15 0 -8
-9 -15 -20 -15 -11 0 -20 7 -20 15 0 8 -9 15 -20 15 -11 0 -20 -7 -20 -16 0
-12 -9 -15 -37 -13 -67 4 -123 -1 -123 -11 0 -5 18 -10 40 -10 22 0 40 -4 40
-10 0 -5 19 -11 43 -11 29 -2 34 -3 15 -6 -25 -4 -28 -9 -28 -40 0 -30 2 -34
15 -23 12 10 15 10 15 -4 0 -11 -9 -16 -30 -16 -28 0 -30 2 -30 40 0 35 -3 40
-22 39 -13 0 -17 -3 -10 -6 6 -2 12 -20 12 -39 0 -35 5 -38 75 -47 23 -3 20
-4 -12 -6 -36 -1 -43 -4 -43 -21 0 -17 -7 -20 -40 -20 -22 0 -40 -4 -40 -10 0
-5 -12 -10 -26 -10 -14 0 -23 -4 -19 -10 3 -5 15 -10 26 -10 12 0 19 -7 19
-20 0 -17 7 -20 40 -20 22 0 40 -4 40 -10 0 -5 -18 -10 -40 -10 -22 0 -40 5
-40 10 0 6 -6 10 -13 10 -19 0 -67 -24 -67 -34 0 -4 -11 -17 -25 -28 -34 -27
-31 -38 11 -38 21 0 33 -4 29 -10 -9 -15 -92 -12 -99 3 -3 6 -4 -14 -2 -45 3
-32 0 -58 -5 -58 -5 0 -9 7 -9 15 0 9 -9 15 -25 15 -22 0 -25 4 -25 37 0 20 7
45 17 55 15 17 15 18 -5 18 -19 0 -22 -6 -22 -45 0 -39 -3 -45 -21 -45 -18 0
-19 2 -9 15 11 13 8 15 -14 15 -15 0 -34 -7 -42 -15 -9 -8 -25 -15 -38 -15
-12 0 -27 -5 -34 -12 -18 -18 -44 20 -31 44 5 10 14 18 19 18 6 0 10 8 10 18
0 21 -41 24 -48 4 -2 -7 -10 -12 -18 -12 -10 0 -14 12 -14 40 0 22 -4 40 -9
40 -5 0 -12 -18 -16 -40 -7 -39 -34 -58 -36 -25 -1 8 -3 20 -4 25 -1 6 -3 15
-4 20 0 6 -13 2 -28 -7 -15 -10 -24 -12 -20 -5 6 8 1 12 -17 12 -14 0 -26 5
-26 10 0 6 18 10 40 10 22 0 40 5 40 10 0 6 -18 10 -40 10 -29 0 -40 4 -40 15
0 9 -9 15 -22 15 -22 1 -22 1 -4 11 11 7 21 8 25 2 7 -12 81 -4 81 8 0 17
-122 10 -142 -8 -17 -15 -18 -15 -18 5 0 12 5 22 10 22 6 0 10 16 10 35 0 19
-4 35 -10 35 -5 0 -10 -9 -10 -20 0 -18 -7 -20 -84 -20 -66 0 -86 4 -97 17
-11 13 -11 17 -1 20 6 3 13 23 14 46 l1 42 7 -45 c4 -25 8 -36 8 -25 1 11 9
31 18 43 8 12 10 22 5 22 -6 0 -11 18 -11 40 0 33 -3 40 -20 40 -16 0 -20 -7
-21 -40 -2 -53 -3 -57 -11 -66 -5 -4 -8 0 -8 9 0 26 -117 25 -123 0 -2 -10 -2
11 1 46 4 50 1 71 -13 97 -16 30 -38 48 -33 27 3 -14 -13 -73 -20 -73 -13 0
-47 -104 -44 -132 3 -24 0 -28 -22 -28 -24 0 -26 4 -26 40 0 22 4 40 9 40 4 0
18 27 30 60 12 32 26 62 31 65 6 4 10 16 10 29 0 13 9 31 20 41 11 10 20 26
20 36 0 22 28 74 58 107 12 14 22 29 22 33 0 12 236 249 248 249 5 0 29 16 53
35 24 19 54 35 66 35 12 0 25 4 28 10 7 12 92 50 111 50 8 0 14 5 14 10 0 6
18 10 40 10 22 0 40 -4 40 -9z m160 -1 c0 -5 -18 -10 -40 -10 -22 0 -40 5 -40
10 0 6 18 10 40 10 22 0 40 -4 40 -10z m270 -36 c0 -2 -7 -4 -15 -4 -8 0 -15
4 -15 10 0 5 7 7 15 4 8 -4 15 -8 15 -10z m5291 -94 c32 0 39 -3 39 -20 0 -28
11 -25 49 15 25 27 41 35 68 35 44 0 63 -19 63 -63 0 -41 33 -87 63 -87 40 0
48 -13 46 -74 -2 -41 2 -60 12 -67 11 -7 15 0 19 33 4 36 7 39 18 25 8 -9 11
-21 7 -27 -4 -7 -1 -63 6 -126 11 -105 14 -114 33 -114 20 0 21 -6 22 -83 0
-45 -1 -63 -3 -39 -3 34 -8 42 -24 42 -16 0 -19 -7 -19 -40 0 -22 -4 -40 -10
-40 -6 0 -10 -50 -10 -129 0 -76 -4 -132 -10 -136 -5 -3 -10 1 -10 9 0 9 -7
16 -15 16 -11 0 -15 -11 -15 -39 0 -22 4 -41 10 -43 5 -1 -4 -31 -20 -65 -20
-41 -34 -61 -43 -57 -20 7 -39 -21 -42 -63 -1 -20 -9 -42 -19 -48 -9 -7 -16
-21 -16 -31 0 -18 -20 -34 -62 -50 -10 -3 -18 -10 -18 -15 0 -5 -18 -9 -40 -9
-22 0 -40 5 -40 10 0 6 7 10 15 10 8 0 15 6 15 14 0 7 -7 19 -15 26 -8 7 -15
19 -15 26 0 8 -10 14 -25 14 -25 0 -25 1 -25 80 0 64 -3 80 -15 80 -12 0 -15
16 -15 80 0 64 3 80 15 80 11 0 15 11 15 40 0 28 -4 40 -14 40 -12 0 -14 20
-15 96 0 78 -3 100 -18 117 -13 14 -15 21 -6 24 10 4 9 11 -2 33 -8 16 -15 37
-15 47 0 10 -9 33 -20 51 -11 17 -15 32 -10 32 6 0 10 18 10 40 0 22 -4 40
-10 40 -6 0 -10 33 -10 80 0 66 3 80 16 80 13 0 14 8 8 46 -4 31 -3 45 3 41 6
-4 13 11 17 34 4 23 12 51 19 63 12 20 12 20 15 -6 3 -25 7 -28 43 -28z
m-5161 -20 c0 -5 -2 -10 -4 -10 -3 0 -8 5 -11 10 -3 6 -1 10 4 10 6 0 11 -4
11 -10z m5470 -41 c0 -5 -7 -9 -15 -9 -9 0 -15 9 -15 21 0 18 2 19 15 9 8 -7
15 -16 15 -21z m-7724 -167 c-2 -1 -16 0 -31 4 -18 4 -23 9 -14 14 11 7 53 -9
45 -18z m7917 -169 c-13 -2 -33 -2 -45 0 -13 2 -3 4 22 4 25 0 35 -2 23 -4z
m-5423 -173 c0 -11 -2 -20 -4 -20 -2 0 -6 9 -9 20 -3 11 -1 20 4 20 5 0 9 -9
9 -20z m6000 -25 l0 -45 -42 2 -43 1 38 4 c36 4 37 5 37 44 0 21 2 39 5 39 3
0 5 -20 5 -45z m-7513 -57 c-3 -8 -6 -5 -6 6 -1 11 2 17 5 13 3 -3 4 -12 1
-19z m1723 -98 c0 -22 -4 -40 -10 -40 -5 0 -10 18 -10 40 0 22 5 40 10 40 6 0
10 -18 10 -40z m-1803 -2 c-3 -8 -6 -5 -6 6 -1 11 2 17 5 13 3 -3 4 -12 1 -19z
m3 -28 c0 -5 -4 -10 -10 -10 -5 0 -10 5 -10 10 0 6 5 10 10 10 6 0 10 -4 10
-10z m-1147 -87 c-13 -2 -33 -2 -45 0 -13 2 -3 4 22 4 25 0 35 -2 23 -4z
m-143 -19 c0 -9 -5 -14 -12 -12 -18 6 -21 28 -4 28 9 0 16 -7 16 -16z m1710
-19 c0 -8 -7 -15 -15 -15 -8 0 -15 7 -15 15 0 8 7 15 15 15 8 0 15 -7 15 -15z
m50 0 c0 -8 -4 -15 -10 -15 -5 0 -10 7 -10 15 0 8 5 15 10 15 6 0 10 -7 10
-15z m1380 -219 c0 -32 19 -45 76 -52 57 -7 207 -55 264 -84 22 -11 40 -18 40
-15 0 3 15 -4 33 -17 17 -13 59 -37 92 -53 37 -19 86 -56 128 -99 65 -66 147
-174 147 -195 0 -5 4 -11 9 -13 16 -6 89 -172 115 -263 40 -137 59 -333 45
-464 -10 -102 -38 -234 -61 -296 -129 -342 -350 -588 -618 -690 -107 -40 -188
-55 -330 -61 -140 -6 -262 7 -385 40 -52 14 -221 90 -235 106 -3 3 -34 25 -70
50 -36 24 -94 76 -130 115 -60 65 -96 128 -190 325 -14 30 -43 137 -59 220
-22 108 -19 365 4 478 9 42 13 87 10 100 -7 30 26 126 74 212 16 29 40 85 43
100 2 8 11 21 21 28 9 7 17 19 17 26 0 8 7 16 15 20 8 3 15 14 15 25 0 11 13
30 30 42 16 12 27 26 24 31 -3 4 7 13 21 20 14 6 25 19 24 27 -2 28 1 36 10
23 6 -11 14 -6 30 17 12 17 29 31 37 31 8 0 14 9 14 20 0 12 7 20 18 20 20 1
62 33 62 49 0 6 7 11 15 11 8 0 23 8 33 18 17 16 45 32 87 48 24 9 22 8 64 18
18 5 49 17 67 28 19 11 41 18 49 14 8 -3 17 -1 21 5 3 5 13 9 22 8 10 -1 19 0
22 1 10 3 97 11 178 16 73 5 82 8 82 25 0 11 5 17 10 14 6 -3 10 -17 10 -29z
m4718 -185 c10 -6 9 -10 -7 -14 -14 -3 -21 0 -21 9 0 16 9 18 28 5z m-6523
-2721 c3 -5 2 -10 -4 -10 -5 0 -13 5 -16 10 -3 6 -2 10 4 10 5 0 13 -4 16 -10z
m10025 -300 c0 -23 -10 -26 -28 -8 -18 18 -15 28 8 28 13 0 20 -7 20 -20z
m-4560 -230 c0 -5 14 -10 32 -10 30 0 117 -27 128 -40 5 -5 80 -42 173 -85 34
-16 56 -34 111 -94 10 -11 23 -18 27 -15 5 3 9 -3 9 -14 0 -10 9 -28 20 -40
11 -12 20 -25 20 -31 0 -5 7 -12 16 -15 11 -4 13 -13 9 -27 -6 -17 -4 -21 7
-16 8 3 21 1 29 -4 11 -8 9 -13 -11 -29 -14 -11 -32 -27 -41 -35 -11 -10 -37
-15 -84 -15 -55 0 -80 -6 -132 -30 -34 -16 -69 -30 -77 -30 -14 0 -33 -86 -22
-98 3 -3 6 7 6 21 0 15 5 27 10 27 6 0 10 -18 10 -40 0 -29 -5 -42 -20 -50
-24 -13 -27 -55 -3 -64 9 -4 19 -2 23 4 18 29 138 -25 126 -56 -3 -9 2 -14 14
-14 14 0 20 -7 20 -21 0 -25 21 -47 39 -41 10 3 12 0 8 -11 -3 -9 -2 -19 4
-22 5 -4 7 -10 5 -14 -3 -4 -1 -13 4 -21 6 -10 -2 -29 -26 -62 -18 -26 -33
-48 -31 -48 1 0 27 -9 57 -20 30 -11 66 -20 80 -21 14 0 20 -3 13 -5 -19 -8
-4 -32 18 -27 16 4 19 0 19 -26 0 -21 4 -30 11 -25 7 4 9 2 5 -7 -3 -8 -9 -21
-12 -30 -3 -8 -24 -21 -47 -27 -23 -7 -49 -17 -57 -22 -13 -9 -13 -11 0 -20 8
-5 27 -10 43 -10 21 0 27 -5 27 -21 0 -15 5 -19 15 -15 17 6 45 -29 45 -56 0
-10 5 -18 10 -18 6 0 10 5 10 10 0 6 5 10 10 10 6 0 10 -13 10 -30 0 -24 -4
-30 -20 -30 -19 0 -21 -5 -19 -51 2 -44 -1 -54 -21 -69 -20 -15 -23 -25 -21
-69 1 -30 -2 -51 -9 -51 -5 0 -10 11 -10 25 0 14 -4 25 -9 25 -5 0 -18 -11
-29 -25 -11 -14 -25 -25 -31 -25 -6 0 -11 -9 -11 -19 0 -11 -10 -27 -22 -35
-18 -13 -22 -24 -19 -61 2 -42 1 -45 -22 -45 -20 0 -25 -6 -30 -37 -4 -22 -2
-39 3 -41 6 -2 4 -12 -4 -24 -8 -11 -12 -26 -10 -33 5 -13 -44 -51 -62 -47 -6
1 -19 -7 -29 -18 -10 -11 -26 -20 -36 -20 -22 0 -34 -17 -17 -23 16 -5 8 -15
-18 -20 -37 -7 -54 -19 -54 -38 0 -15 -7 -19 -33 -19 -18 0 -37 -4 -42 -9 -6
-5 -39 -18 -75 -31 -57 -19 -83 -25 -128 -29 -7 0 -11 -5 -8 -10 3 -5 -3 -11
-14 -14 -10 -3 -21 0 -23 7 -3 7 -11 5 -24 -6 -11 -10 -25 -18 -31 -18 -18 0
-66 -52 -81 -88 -8 -18 -22 -37 -32 -43 -11 -5 -19 -16 -19 -24 0 -8 -16 -25
-35 -37 -19 -13 -35 -27 -35 -31 0 -20 -43 -68 -56 -63 -8 3 -11 0 -8 -8 5
-12 -5 -24 -80 -96 -20 -19 -36 -40 -36 -47 0 -7 -9 -13 -20 -13 -11 0 -20 -6
-20 -14 0 -8 -10 -16 -22 -18 -14 -2 -24 -11 -26 -24 -4 -25 -40 -47 -79 -46
-15 0 -31 -5 -34 -10 -3 -5 -27 -10 -52 -11 -27 -1 -49 -7 -52 -14 -2 -7 -15
-13 -29 -13 -15 0 -25 -7 -29 -19 -4 -16 -18 -20 -81 -26 -53 -5 -76 -11 -76
-21 0 -8 16 -14 43 -17 33 -3 29 -4 -20 -5 -56 -2 -63 -4 -63 -22 0 -11 6 -20
13 -20 7 0 8 -3 2 -8 -6 -4 -16 -19 -22 -34 -13 -30 -33 -38 -33 -13 0 22 -25
18 -41 -5 -8 -11 -25 -22 -38 -25 -31 -6 -38 -13 -17 -21 27 -10 18 -32 -18
-44 -32 -10 -33 -12 -35 -67 -1 -68 -11 -85 -11 -20 l0 47 -40 0 -40 0 0 -45
c0 -41 -2 -45 -25 -45 -22 0 -25 -4 -25 -40 0 -25 5 -40 13 -40 8 0 7 -4 -3
-10 -31 -20 -40 -11 -40 40 l0 50 -50 0 -50 0 0 -40 c0 -37 -2 -40 -27 -40
-17 0 -39 -13 -65 -40 -44 -44 -48 -47 -48 -25 0 11 -11 15 -40 15 -36 0 -40
3 -40 25 0 14 -4 25 -10 25 -5 0 -10 -18 -10 -40 l0 -40 -40 0 -40 0 0 -40 c0
-22 5 -40 10 -40 6 0 10 -33 10 -80 l0 -80 80 0 c64 0 80 -3 80 -15 0 -11 11
-15 40 -15 36 0 40 -2 40 -25 0 -20 5 -25 25 -25 23 0 25 4 25 40 0 36 3 40
25 40 23 0 25 -4 25 -40 0 -22 -4 -40 -10 -40 -5 0 -10 -7 -10 -15 0 -11 11
-15 40 -15 22 0 40 -4 40 -10 0 -6 -33 -10 -80 -10 l-80 0 0 -55 0 -55 40 0
c22 0 40 -4 40 -10 0 -5 -18 -10 -40 -10 -22 0 -40 5 -40 10 0 6 -18 10 -40
10 l-40 0 0 -40 0 -40 -40 0 c-29 0 -40 -4 -40 -15 0 -12 -16 -15 -80 -15 -78
0 -80 -1 -80 -25 0 -23 3 -24 78 -28 42 -2 30 -3 -28 -2 -87 3 -106 0 -117
-13 -8 -11 -12 -12 -13 -4 0 7 -15 12 -39 12 -47 0 -91 31 -91 66 0 15 -6 24
-15 24 -8 0 -15 -9 -15 -19 0 -10 7 -21 15 -25 8 -3 15 -12 15 -21 0 -8 -7
-15 -15 -15 -8 0 -15 9 -15 20 0 17 -7 20 -40 20 -33 0 -40 3 -40 20 0 18 -7
20 -65 20 -36 0 -65 -4 -65 -9 0 -12 29 -41 41 -41 5 0 9 -9 9 -20 0 -17 -7
-20 -42 -20 -27 0 -52 8 -68 20 -14 11 -31 20 -37 20 -7 0 -13 11 -13 24 0 22
5 25 43 29 23 2 5 4 -40 5 -68 2 -83 -1 -83 -13 0 -8 -4 -15 -10 -15 -6 0 -10
37 -10 90 l0 90 -30 0 c-25 0 -30 4 -30 25 0 23 4 25 40 25 36 0 40 3 40 25 0
23 -4 25 -40 25 -38 0 -40 2 -40 29 0 20 6 31 17 33 15 3 15 4 0 17 -15 12
-17 11 -17 -3 0 -10 -9 -16 -25 -16 -22 0 -25 4 -25 35 0 24 5 35 15 35 9 0
15 9 15 25 0 21 -5 25 -30 25 l-30 0 0 -60 c0 -47 -3 -60 -15 -60 -11 0 -15
11 -15 40 0 22 -4 40 -10 40 -5 0 -10 9 -10 20 0 11 7 20 15 20 23 0 23 65 0
88 -10 11 -14 8 -23 -17 -10 -28 -15 -31 -50 -31 -22 0 -61 -2 -88 -5 -27 -2
-41 -2 -31 1 9 3 17 12 17 20 0 8 7 14 15 14 9 0 15 9 15 24 0 19 -7 26 -30
31 -23 5 -30 12 -30 31 0 21 -4 24 -40 24 -29 0 -40 4 -40 15 0 12 -16 15 -80
15 -73 0 -80 -2 -80 -20 0 -17 -7 -20 -40 -20 -31 0 -40 4 -41 18 0 9 -15 29
-32 43 -27 21 -40 25 -79 21 -33 -3 -48 -9 -48 -18 0 -24 -46 12 -60 46 -11
27 -18 30 -59 32 l-46 2 48 3 c60 5 62 23 2 23 -25 0 -45 5 -45 10 0 6 -25 10
-55 10 l-55 0 0 40 c0 29 -4 40 -15 40 -11 0 -15 11 -15 40 0 30 -4 40 -16 40
-8 0 -27 14 -41 30 -14 17 -32 29 -41 28 -8 -2 -17 3 -19 10 -3 8 6 12 26 12
43 0 31 23 -26 51 -33 16 -41 24 -31 31 10 7 8 12 -9 27 -15 12 -23 30 -23 50
0 29 -2 31 -36 31 -38 0 -63 20 -64 52 0 9 -13 28 -30 41 -17 14 -30 32 -30
39 0 8 -14 26 -32 42 -26 22 -29 29 -17 37 12 8 10 13 -8 28 -20 17 -23 29
-23 91 0 62 -3 74 -22 91 -20 16 -21 20 -8 29 13 9 10 15 -17 40 -37 34 -40
40 -16 40 15 0 15 1 0 18 -10 11 -20 45 -23 80 -4 34 -11 62 -15 62 -5 0 -9
17 -9 39 0 23 -8 48 -20 64 -11 14 -20 32 -20 41 0 9 -4 16 -10 16 -5 0 -10
18 -10 40 0 22 -4 40 -10 40 -5 0 -10 18 -10 40 0 22 4 40 9 40 5 0 13 36 17
79 4 53 11 82 20 85 17 7 19 76 2 76 -9 0 -9 3 0 12 7 7 12 23 12 36 0 13 4
31 9 40 4 9 11 30 15 46 6 23 4 27 -8 23 -9 -4 -16 -2 -16 2 0 18 12 41 22 41
5 0 6 -4 3 -10 -3 -6 1 -7 9 -4 9 3 16 17 16 30 0 13 5 24 11 24 13 0 64 53
73 75 3 9 2 14 -2 11 -4 -2 -14 -1 -22 4 -12 7 -12 12 -3 21 9 9 16 9 28 -1
13 -11 21 -8 48 18 25 24 42 32 69 32 30 0 37 -4 40 -22 l3 -23 20 24 c46 55
55 61 95 61 33 0 40 3 40 20 0 18 7 20 80 20 82 0 116 19 38 21 -40 1 -39 2
17 11 33 5 74 7 92 4 31 -4 72 22 56 37 -3 4 3 7 14 7 12 0 23 -5 25 -12 5
-13 147 -37 231 -37 58 -1 77 -16 32 -27 -45 -11 -26 -24 33 -23 63 2 102 -15
102 -43 0 -14 8 -18 40 -18 36 0 40 -2 40 -25 0 -22 4 -25 40 -25 29 0 40 -4
40 -15 0 -8 -5 -15 -11 -15 -5 0 -7 -5 -3 -12 6 -9 9 -9 12 0 6 18 162 17 162
-1 0 -18 83 -40 148 -39 28 0 52 -3 52 -8 0 -4 14 -10 31 -14 26 -5 36 -1 55
19 21 23 31 26 80 24 39 -2 58 2 64 11 5 9 5 17 -1 21 -27 16 27 31 127 33 91
3 110 6 123 22 9 11 39 30 66 44 28 14 57 32 65 40 8 8 32 24 53 35 26 14 37
26 37 42 0 19 6 23 29 23 16 0 31 6 34 13 3 6 39 30 81 51 42 22 76 43 76 47
0 6 33 18 53 18 4 0 20 7 37 16 16 8 38 15 50 15 11 0 20 4 20 8 0 5 42 19 93
32 50 13 101 28 112 34 11 5 23 10 26 9 3 -1 14 15 24 35 11 20 22 39 25 42
10 10 31 45 36 63 4 9 9 17 13 17 3 0 18 11 33 25 18 16 28 20 31 12 3 -7 6
-2 6 9 1 18 9 22 51 26 39 4 54 11 71 32 16 20 26 25 45 20 14 -4 24 -2 24 5
0 6 5 11 11 11 5 0 7 -4 4 -10 -3 -5 3 -10 14 -10 14 0 21 -6 21 -20 0 -14 7
-20 21 -20 12 0 30 -12 42 -26 19 -25 22 -26 98 -19 76 7 79 6 79 -14 0 -22
19 -28 36 -11 6 6 54 13 107 17 l97 6 0 -26 c0 -25 3 -27 40 -27 29 0 40 4 40
15 0 11 11 15 40 15 29 0 40 -4 40 -15 0 -18 65 -21 75 -4 4 6 40 10 88 9 126
-2 117 -5 117 40 0 35 -3 40 -22 40 -20 0 -19 3 12 35 23 24 40 33 52 29 10
-3 18 -1 18 5 0 6 -4 11 -10 11 -5 0 -10 5 -10 10 0 6 17 10 38 10 25 0 43 7
55 20 21 25 21 28 2 46 -11 11 -15 12 -15 3 0 -7 -18 7 -40 31 -34 37 -40 40
-40 22 0 -27 -16 -28 -32 -2 -7 11 -21 20 -30 20 -10 0 -18 7 -18 15 0 8 5 15
10 15 6 0 10 16 8 35 -1 19 1 37 4 40 9 9 60 9 101 1 35 -8 37 -7 37 17 0 24
-3 25 -34 20 -25 -4 -40 -1 -51 11 -12 12 -13 16 -3 17 10 0 10 2 0 6 -6 2
-10 9 -7 14 4 5 0 6 -8 3 -9 -3 -21 4 -30 16 -9 14 -17 17 -22 11 -7 -12 -25
-5 -25 10 0 5 23 9 50 9 28 0 50 -4 50 -10z m-80 -140 c0 -5 -5 -10 -11 -10
-5 0 -7 5 -4 10 3 6 8 10 11 10 2 0 4 -4 4 -10z m-630 -230 c-10 -18 -8 -20
20 -20 36 0 38 -9 5 -40 -21 -19 -31 -22 -70 -17 -43 6 -45 5 -45 -18 0 -22
-4 -25 -40 -25 -22 0 -40 4 -40 8 0 5 17 27 38 50 30 32 40 38 47 27 14 -18
76 -8 68 11 -7 18 3 44 17 44 8 0 8 -6 0 -20z m-250 1 c0 -5 -16 -9 -35 -9
-19 0 -35 4 -35 9 0 5 16 9 35 9 19 0 35 -4 35 -9z m-70 -36 c7 -8 9 -15 6
-15 -4 0 -14 7 -22 15 -9 8 -11 15 -6 15 5 0 15 -7 22 -15z m470 -15 c0 -28 2
-30 40 -30 22 0 40 -4 40 -10 0 -5 -22 -10 -50 -10 l-50 0 0 40 c0 22 5 40 10
40 6 0 10 -13 10 -30z m160 19 c0 -8 5 -8 15 1 30 25 61 -30 33 -58 -9 -9 -7
-12 10 -12 13 0 22 6 22 15 0 11 11 15 40 15 27 0 40 -4 40 -14 0 -15 -121
-31 -163 -21 -45 12 -64 85 -22 85 14 0 25 -5 25 -11z m1042 -62 c12 -19 9
-32 -4 -19 -7 7 -20 12 -29 12 -9 0 -19 9 -22 19 -4 17 -2 19 21 10 15 -6 30
-16 34 -22z m-352 -217 c0 -5 7 -10 15 -10 8 0 15 -4 15 -10 0 -5 -18 -10 -40
-10 -33 0 -40 3 -40 20 0 15 7 20 25 20 14 0 25 -4 25 -10z m1267 -292 c-3 -8
-6 -5 -6 6 -1 11 2 17 5 13 3 -3 4 -12 1 -19z m-4042 -208 c8 -13 -45 -13 -65
0 -11 7 -6 10 22 10 20 0 40 -4 43 -10z m5805 -108 c0 -9 -9 -23 -20 -30 -18
-11 -20 -10 -20 18 0 23 4 30 20 30 12 0 20 -7 20 -18z m-7710 -150 c0 -5 -7
-17 -15 -28 -14 -18 -14 -18 -15 9 0 17 5 27 15 27 8 0 15 -4 15 -8z m-18
-104 c-7 -7 -12 -8 -12 -2 0 6 3 14 7 17 3 4 9 5 12 2 2 -3 -1 -11 -7 -17z
m6641 -315 c-7 -2 -21 -2 -30 0 -10 3 -4 5 12 5 17 0 24 -2 18 -5z m175 -95
l-1 -43 -4 37 c-4 31 -8 37 -31 41 -24 4 -24 4 6 6 32 1 32 0 30 -41z m246 27
c-4 -8 -8 -15 -10 -15 -2 0 -4 7 -4 15 0 8 4 15 10 15 5 0 7 -7 4 -15z m169
-1 c18 -9 34 -18 37 -21 12 -11 -31 -23 -82 -23 -32 0 -58 -4 -58 -10 0 -5
-18 -10 -40 -10 -33 0 -40 3 -40 20 0 17 7 20 40 20 33 0 40 3 40 20 0 16 7
20 35 20 20 0 50 -7 68 -16z m-120 -151 c-13 -2 -33 -2 -45 0 -13 2 -3 4 22 4
25 0 35 -2 23 -4z m4657 -329 c0 -8 -4 -12 -10 -9 -5 3 -10 10 -10 16 0 5 5 9
10 9 6 0 10 -7 10 -16z m-4803 -96 c-3 -7 -5 -2 -5 12 0 14 2 19 5 13 2 -7 2
-19 0 -25z m283 -8 c0 -33 3 -40 20 -40 11 0 20 5 20 10 0 6 33 10 80 10 51 0
80 -4 80 -11 0 -7 18 -10 48 -9 77 4 82 2 82 -25 0 -16 6 -25 15 -25 8 0 15 9
15 20 0 13 7 20 20 20 11 0 20 -7 20 -15 0 -8 9 -15 20 -15 11 0 20 -4 20 -10
0 -5 18 -10 40 -10 39 0 40 1 40 35 0 24 5 35 15 35 8 0 12 -6 9 -13 -2 -7 7
-24 21 -37 14 -13 25 -29 25 -36 0 -8 6 -11 16 -7 9 3 20 0 25 -8 7 -11 9 -11
9 -1 0 7 5 10 10 7 6 -3 10 -15 10 -26 0 -10 5 -19 10 -19 6 0 10 5 10 10 0 6
7 10 15 10 8 0 15 -7 15 -15 0 -9 9 -15 25 -15 14 0 25 -4 25 -10 0 -5 9 -10
20 -10 11 0 20 -7 20 -15 0 -8 9 -15 20 -15 11 0 20 5 20 10 0 17 70 12 77 -6
9 -23 77 -85 81 -73 2 5 10 9 18 9 10 0 14 -13 14 -44 0 -36 5 -49 25 -64 14
-11 25 -26 25 -34 0 -8 18 -32 40 -53 36 -35 40 -37 40 -17 0 31 10 28 47 -15
23 -28 32 -33 33 -20 0 27 30 21 30 -7 0 -17 7 -26 25 -30 27 -7 49 -47 54
-98 1 -5 7 -8 14 -8 7 0 18 -21 26 -47 7 -27 16 -57 21 -68 5 -11 14 -58 20
-105 6 -47 20 -108 31 -135 24 -63 24 -65 -3 -66 -18 -1 -16 -3 9 -10 18 -5
35 -14 39 -21 4 -6 6 -69 5 -140 l-2 -128 25 0 c24 0 26 -4 26 -40 0 -29 -4
-40 -15 -40 -11 0 -15 -11 -15 -40 0 -22 -4 -40 -10 -40 -6 0 -10 -47 -10
-120 0 -100 -2 -120 -15 -120 -11 0 -15 -11 -15 -40 0 -22 -4 -40 -10 -40 -14
0 -12 -78 2 -82 8 -3 0 -16 -19 -34 l-31 -29 10 -82 c10 -76 9 -82 -11 -104
-17 -19 -21 -20 -21 -6 0 9 -4 17 -10 17 -14 0 -12 -78 2 -82 7 -3 -2 -17 -22
-36 -29 -26 -32 -33 -21 -41 13 -8 12 -15 -4 -45 -13 -24 -22 -31 -27 -23 -4
7 -8 10 -9 7 -3 -18 -9 -39 -20 -70 -7 -19 -13 -41 -15 -48 -2 -7 -14 -16 -27
-21 -28 -11 -44 -41 -22 -41 21 0 19 -4 -20 -43 -28 -28 -35 -43 -36 -79 -1
-23 -4 -33 -6 -20 -2 12 -8 22 -12 22 -14 0 -33 -28 -27 -39 7 -11 -24 -81
-36 -81 -4 0 -8 7 -8 15 0 19 -21 19 -46 0 -10 -8 -27 -15 -38 -15 -10 0 -29
-11 -42 -25 -18 -20 -33 -25 -69 -25 -33 0 -45 -4 -45 -15 0 -11 11 -15 40
-15 30 0 40 -4 40 -16 0 -14 -10 -16 -67 -12 -38 3 -56 3 -40 1 15 -2 27 -9
27 -15 0 -7 -25 -9 -80 -4 l-80 6 0 -30 c0 -28 -2 -30 -41 -30 -24 0 -38 4
-34 10 9 14 -182 5 -200 -10 -20 -16 -105 -26 -200 -22 -44 2 -107 3 -140 3
-56 0 -182 12 -269 25 -27 4 -36 3 -32 -5 4 -7 -1 -11 -13 -11 -30 0 -73 19
-67 29 3 5 -2 15 -12 22 -15 13 -16 12 -3 -3 15 -20 2 -25 -17 -6 -9 9 -12 9
-12 -2 0 -9 -8 -6 -25 10 -18 17 -40 25 -80 28 -38 3 -55 9 -55 18 0 21 -183
20 -200 0 -6 -8 -18 -12 -26 -9 -22 8 -17 23 9 23 20 1 21 2 5 14 -10 7 -15
15 -12 18 3 3 -15 3 -39 1 -25 -3 -53 0 -63 6 -16 8 -9 11 36 12 51 2 52 3 13
6 -30 3 -46 10 -53 24 -6 11 -21 19 -35 19 -13 0 -27 5 -30 10 -3 6 -15 10
-25 10 -11 0 -24 9 -30 20 -6 11 -17 20 -25 20 -8 0 -15 7 -15 16 0 9 -7 22
-15 28 -8 6 -17 22 -20 35 -6 33 -29 47 -33 21 -4 -23 -22 -27 -22 -5 0 21
-30 65 -44 65 -17 0 -88 75 -79 83 3 4 -8 4 -25 1 -29 -6 -32 -4 -32 16 0 33
-28 60 -62 60 -21 0 -28 5 -28 20 0 11 7 20 15 20 19 0 19 30 -1 58 -15 22
-44 30 -44 12 0 -6 -8 -5 -20 2 -12 8 -20 24 -20 40 0 15 -4 29 -9 32 -11 7
-21 56 -11 56 4 0 5 11 3 24 -3 16 -13 26 -27 28 -19 3 -21 11 -27 108 -4 58
-7 171 -8 253 l-1 147 -25 0 c-22 0 -25 4 -25 35 0 28 4 35 20 35 18 0 20 7
20 83 0 96 19 145 21 57 2 -38 3 -44 6 -20 2 19 8 45 14 56 7 13 10 55 7 97
-2 42 -1 71 3 66 7 -12 39 34 39 56 0 9 9 15 23 15 l22 0 -25 20 -25 20 21 18
c26 21 65 80 46 68 -11 -7 -12 -4 -3 12 6 12 11 34 11 49 -3 79 22 153 50 153
9 0 22 11 28 25 15 33 15 35 -4 35 -8 0 -12 5 -9 10 3 6 1 10 -4 10 -6 0 -11
5 -11 11 0 5 10 9 23 7 16 -2 21 1 19 15 -2 11 4 17 16 17 14 0 21 9 24 31 4
26 2 30 -14 26 -13 -4 -18 0 -18 15 0 16 5 19 28 14 32 -7 42 -1 61 37 8 15
20 27 27 27 7 0 15 21 19 50 6 45 9 50 33 50 34 0 21 12 -19 16 -45 6 -48 12
-15 40 26 23 28 30 24 75 -3 27 -1 52 3 55 5 3 9 -20 9 -50 0 -31 5 -56 10
-56 6 0 10 26 9 60 -1 44 3 66 15 79 17 18 16 20 -1 24 -10 3 1 5 25 6 31 1
42 5 42 17 0 30 125 0 246 -57 22 -11 48 -17 57 -13 13 4 17 1 17 -15 0 -12 6
-21 15 -21 8 0 15 7 15 15 0 9 9 15 25 15 14 0 37 11 51 25 14 14 31 25 39 25
8 0 15 7 15 15 0 21 48 65 71 65 11 0 36 16 56 35 29 28 44 35 75 35 21 0 38
-4 38 -10 0 -6 33 -10 80 -10 64 0 80 3 80 15 0 11 11 15 40 15 l40 0 0 40 c0
33 3 40 20 40 17 0 20 -7 20 -40z m230 15 c0 -16 -6 -25 -15 -25 -9 0 -15 9
-15 25 0 16 6 25 15 25 9 0 15 -9 15 -25z m-367 8 c-13 -2 -33 -2 -45 0 -13 2
-3 4 22 4 25 0 35 -2 23 -4z m4974 -125 c-2 -13 -4 -3 -4 22 0 25 2 35 4 23 2
-13 2 -33 0 -45z m-4084 -15 c-7 -2 -21 -2 -30 0 -10 3 -4 5 12 5 17 0 24 -2
18 -5z m107 -74 c0 -5 -4 -9 -10 -9 -5 0 -10 7 -10 16 0 8 5 12 10 9 6 -3 10
-10 10 -16z m-4310 -44 c0 -8 -7 -15 -15 -15 -8 0 -15 -7 -15 -15 0 -8 -8 -15
-17 -15 -14 0 -12 6 12 29 36 35 35 35 35 16z m-113 -242 c-3 -10 -5 -4 -5 12
0 17 2 24 5 18 2 -7 2 -21 0 -30z m-334 -50 c-13 -2 -33 -2 -45 0 -13 2 -3 4
22 4 25 0 35 -2 23 -4z m-6000 -70 c-13 -2 -33 -2 -45 0 -13 2 -3 4 22 4 25 0
35 -2 23 -4z m-23 -123 c0 -22 -4 -40 -10 -40 -5 0 -10 18 -10 40 0 22 5 40
10 40 6 0 10 -18 10 -40z m12372 5 c19 -7 68 -95 68 -123 0 -16 -28 -41 -47
-42 -6 0 -18 6 -26 14 -12 12 -18 12 -44 -1 -17 -8 -33 -23 -36 -34 -4 -15
-15 -19 -49 -21 l-43 -1 38 -4 c21 -3 45 1 53 8 11 9 14 8 14 -9 0 -23 -18
-32 -66 -32 -27 0 -34 -4 -34 -20 0 -16 -7 -20 -35 -20 -18 0 -38 -6 -42 -14
-11 -18 -128 -48 -159 -40 -28 7 -29 12 -9 38 8 10 12 23 9 27 -3 5 2 9 11 9
9 0 14 4 11 9 -3 5 1 14 9 21 8 7 15 9 15 6 0 -4 7 -1 15 8 8 8 15 19 15 24 0
5 10 17 22 28 22 19 23 19 8 -1 -14 -18 -14 -19 2 -7 10 8 17 17 15 20 -5 20
75 112 98 112 8 0 15 9 15 21 0 11 4 18 8 15 4 -2 14 -1 21 3 15 10 117 14
143 6z m-8909 -52 c-13 -2 -33 -2 -45 0 -13 2 -3 4 22 4 25 0 35 -2 23 -4z
m3727 -186 c52 -13 104 -28 115 -34 11 -6 55 -26 98 -44 42 -18 77 -36 77 -41
0 -4 6 -8 14 -8 8 0 21 -8 28 -18 7 -10 43 -42 81 -72 37 -29 67 -58 67 -64 0
-6 11 -23 25 -38 14 -15 25 -32 25 -38 0 -5 11 -10 25 -10 14 0 25 -6 26 -12
0 -10 2 -10 6 0 11 27 23 10 23 -33 0 -36 6 -50 32 -77 26 -27 29 -33 15 -36
-21 -4 -22 -31 -3 -77 43 -103 41 -414 -2 -457 -7 -7 -12 -22 -12 -34 0 -12
-7 -27 -15 -34 -8 -7 -15 -19 -15 -26 0 -8 -3 -14 -8 -14 -4 0 -13 -13 -20
-30 -7 -16 -40 -57 -73 -91 -32 -34 -59 -63 -59 -65 0 -10 -132 -131 -162
-148 -64 -37 -164 -83 -218 -101 -109 -37 -364 -28 -455 15 -22 10 -53 22 -70
26 -41 9 -135 55 -135 66 0 4 -5 8 -12 8 -6 0 -33 18 -59 40 -26 22 -50 40
-54 40 -15 0 -157 156 -168 183 -3 9 -11 17 -17 17 -5 0 -10 9 -10 20 0 11 -4
20 -8 20 -5 0 -26 35 -48 77 -21 43 -41 80 -44 83 -3 3 -12 23 -20 45 -16 45
-17 249 -1 269 5 6 12 31 16 56 4 25 11 50 15 55 4 6 15 41 25 79 18 75 44
136 57 136 4 0 8 7 8 17 0 9 12 32 27 52 41 56 182 191 198 191 8 0 15 4 15 9
0 10 155 87 196 97 16 4 34 10 39 15 35 27 306 19 435 -14z m-1762 -179 c18
-18 15 -28 -8 -28 -13 0 -20 7 -20 20 0 23 10 26 28 8z m2422 -99 c0 -5 -4 -9
-10 -9 -5 0 -10 7 -10 16 0 8 5 12 10 9 6 -3 10 -10 10 -16z m-2370 -239 c0
-5 -18 -10 -40 -10 -22 0 -40 5 -40 10 0 6 18 10 40 10 22 0 40 -4 40 -10z
m-1100 -80 c0 -5 -4 -10 -10 -10 -5 0 -10 5 -10 10 0 6 5 10 10 10 6 0 10 -4
10 -10z m167 -36 c-3 -3 -12 -4 -19 -1 -8 3 -5 6 6 6 11 1 17 -2 13 -5z m3697
-115 c3 -34 6 -88 6 -120 0 -56 -1 -59 -25 -59 -22 0 -25 4 -25 40 0 33 -3 40
-20 40 -18 0 -20 7 -20 80 l0 80 39 0 38 0 7 -61z m-157 -176 c-2 -16 -4 -3
-4 27 0 30 2 43 4 28 2 -16 2 -40 0 -55z m133 -123 c0 -22 -4 -40 -10 -40 -5
0 -10 18 -10 40 0 22 5 40 10 40 6 0 10 -18 10 -40z m3180 -80 c0 -22 -4 -40
-10 -40 -5 0 -10 18 -10 40 0 22 5 40 10 40 6 0 10 -18 10 -40z m-2880 -296
c0 -8 -4 -12 -10 -9 -5 3 -10 10 -10 16 0 5 5 9 10 9 6 0 10 -7 10 -16z m240
-234 c0 -5 -6 -10 -14 -10 -8 0 -18 5 -21 10 -3 6 3 10 14 10 12 0 21 -4 21
-10z m-6450 -404 c0 -2 -7 -6 -15 -10 -8 -3 -15 -1 -15 4 0 6 7 10 15 10 8 0
15 -2 15 -4z m1600 -291 c10 -13 9 -15 -9 -15 -12 0 -21 6 -21 15 0 8 4 15 9
15 5 0 14 -7 21 -15z m13567 -171 c-3 -3 -12 -4 -19 -1 -8 3 -5 6 6 6 11 1 17
-2 13 -5z m3 -414 c0 -5 -2 -10 -4 -10 -3 0 -8 5 -11 10 -3 6 -1 10 4 10 6 0
11 -4 11 -10z"/>
<path d="M5575 14260 c10 -11 20 -20 22 -20 1 0 3 9 3 20 0 14 -7 20 -22 20
-20 0 -21 -1 -3 -20z"/>
<path d="M6460 13710 c0 -5 5 -10 10 -10 6 0 10 5 10 10 0 6 -4 10 -10 10 -5
0 -10 -4 -10 -10z"/>
<path d="M5993 11920 c0 -25 2 -35 4 -22 2 12 2 32 0 45 -2 12 -4 2 -4 -23z"/>
<path d="M3760 11490 c0 -5 5 -10 11 -10 5 0 7 5 4 10 -3 6 -8 10 -11 10 -2 0
-4 -4 -4 -10z"/>
<path d="M7980 10050 c0 -5 5 -10 10 -10 6 0 10 5 10 10 0 6 -4 10 -10 10 -5
0 -10 -4 -10 -10z"/>
<path d="M3440 10941 c0 -17 6 -21 35 -21 26 0 33 3 29 15 -4 8 -12 15 -19 15
-7 0 -20 3 -29 6 -12 4 -16 0 -16 -15z"/>
<path d="M3520 10936 c0 -9 5 -16 10 -16 6 0 10 4 10 9 0 6 -4 13 -10 16 -5 3
-10 -1 -10 -9z"/>
<path d="M3323 10913 c9 -2 23 -2 30 0 6 3 -1 5 -18 5 -16 0 -22 -2 -12 -5z"/>
<path d="M3280 10899 c0 -5 5 -7 10 -4 6 3 10 8 10 11 0 2 -4 4 -10 4 -5 0
-10 -5 -10 -11z"/>
<path d="M3360 10855 c0 -12 15 -15 83 -13 45 1 63 3 40 5 -24 2 -43 8 -43 14
0 5 -18 9 -40 9 -29 0 -40 -4 -40 -15z"/>
<path d="M3192 10798 c3 -43 3 -43 46 -46 38 -3 42 -6 42 -29 0 -24 1 -25 18
-11 9 9 27 19 40 22 21 7 22 5 22 -58 0 -79 15 -87 24 -13 12 104 19 97 -89
97 l-95 0 0 26 c0 15 8 33 18 40 16 12 15 13 -6 14 -21 0 -23 -4 -20 -42z"/>
<path d="M3528 10753 c7 -3 16 -2 19 1 4 3 -2 6 -13 5 -11 0 -14 -3 -6 -6z"/>
<path d="M3520 10700 c0 -5 7 -10 15 -10 8 0 15 5 15 10 0 6 -7 10 -15 10 -8
0 -15 -4 -15 -10z"/>
<path d="M3600 10696 c0 -9 7 -12 20 -9 11 3 17 9 14 14 -8 14 -34 10 -34 -5z"/>
<path d="M3070 10683 c19 -3 38 -10 42 -16 5 -8 8 -6 8 6 0 14 -8 17 -42 15
-41 -1 -41 -1 -8 -5z"/>
<path d="M2173 10653 c4 -27 32 -41 32 -16 0 6 3 15 8 19 14 14 7 24 -18 24
-22 0 -25 -4 -22 -27z"/>
<path d="M3635 10670 c3 -5 15 -10 26 -10 10 0 19 5 19 10 0 6 -12 10 -26 10
-14 0 -23 -4 -19 -10z"/>
<path d="M2225 10650 c-3 -5 -1 -10 4 -10 6 0 11 5 11 10 0 6 -2 10 -4 10 -3
0 -8 -4 -11 -10z"/>
<path d="M3440 10625 c0 -11 11 -15 40 -15 29 0 40 4 40 15 0 11 -11 15 -40
15 -29 0 -40 -4 -40 -15z"/>
<path d="M3193 10605 c-15 -17 -17 -55 -3 -55 6 0 10 11 10 25 0 16 6 25 15
25 9 0 15 -9 15 -25 0 -14 5 -25 10 -25 6 0 10 -7 10 -15 0 -8 7 -15 15 -15
10 0 15 10 15 28 0 20 7 32 23 40 l22 11 -22 0 c-13 1 -23 6 -23 11 0 15 -73
11 -87 -5z"/>
<path d="M3741 10544 c-10 -22 -9 -24 19 -24 35 0 38 9 11 32 -18 15 -19 14
-30 -8z"/>
<path d="M3782 10478 c-12 -12 -5 -38 12 -38 13 0 19 37 7 44 -4 3 -13 0 -19
-6z"/>
<path d="M2027 10433 c-9 -9 -9 -43 1 -43 4 0 8 11 8 25 2 27 1 29 -9 18z"/>
<path d="M3175 10430 c-3 -6 1 -7 9 -4 18 7 21 14 7 14 -6 0 -13 -4 -16 -10z"/>
<path d="M3170 10335 c0 -18 4 -23 15 -19 8 4 15 15 15 25 0 10 -7 19 -15 19
-9 0 -15 -9 -15 -25z"/>
<path d="M2863 10153 c-18 -7 -16 -33 2 -33 8 0 15 9 15 20 0 11 -1 20 -2 19
-2 0 -9 -3 -15 -6z"/>
<path d="M8686 11066 c9 -24 34 -28 34 -6 0 13 -7 20 -20 20 -13 0 -17 -5 -14
-14z"/>
<path d="M8800 10481 c0 -22 -5 -41 -12 -44 -10 -4 -10 -7 0 -18 10 -11 12
-10 12 4 0 9 5 17 10 17 6 0 10 18 10 40 0 22 -4 40 -10 40 -5 0 -10 -18 -10
-39z"/>
<path d="M7900 6170 c0 -16 5 -30 10 -30 6 0 10 14 10 30 0 17 -4 30 -10 30
-5 0 -10 -13 -10 -30z"/>
<path d="M8000 6149 c0 -24 23 -21 28 4 2 10 -3 17 -12 17 -10 0 -16 -9 -16
-21z"/>
<path d="M7913 6118 c6 -4 29 -8 49 -8 25 0 38 -5 40 -16 3 -13 5 -13 23 0 11
8 18 16 15 19 -3 3 -35 7 -72 9 -37 2 -62 0 -55 -4z"/>
<path d="M7643 5803 c12 -3 17 -15 17 -43 0 -30 5 -40 20 -45 28 -9 171 6 145
15 -11 4 -33 3 -50 -1 -44 -13 -65 -11 -65 6 0 9 -7 18 -15 21 -8 4 -15 14
-15 24 0 18 -20 31 -43 29 -7 -1 -4 -3 6 -6z"/>
<path d="M8065 5330 c-3 -5 -1 -10 4 -10 6 0 11 5 11 10 0 6 -2 10 -4 10 -3 0
-8 -4 -11 -10z"/>
<path d="M6780 3730 c-13 -8 -12 -10 3 -10 9 0 17 5 17 10 0 12 -1 12 -20 0z"/>
<path d="M6140 3410 c0 -5 5 -10 10 -10 6 0 10 5 10 10 0 6 -4 10 -10 10 -5 0
-10 -4 -10 -10z"/>
<path d="M3987 3257 c-6 -15 2 -17 71 -17 69 0 74 2 52 13 -14 7 -26 9 -28 5
-6 -13 -80 -9 -84 4 -3 7 -7 6 -11 -5z"/>
<path d="M5440 2888 c0 -6 -7 -20 -17 -30 -15 -17 -15 -18 0 -18 10 0 17 5 17
10 0 6 18 10 40 10 33 0 40 3 40 20 0 17 -7 20 -40 20 -24 0 -40 -5 -40 -12z"/>
<path d="M5390 2560 c0 -22 5 -40 10 -40 6 0 10 8 10 18 0 9 3 27 6 40 5 16 2
22 -10 22 -12 0 -16 -10 -16 -40z"/>
<path d="M5600 2560 c0 -5 18 -10 40 -10 22 0 40 5 40 10 0 6 -18 10 -40 10
-22 0 -40 -4 -40 -10z"/>
<path d="M7120 6050 c0 -5 5 -10 11 -10 5 0 7 5 4 10 -3 6 -8 10 -11 10 -2 0
-4 -4 -4 -10z"/>
<path d="M11340 3630 c0 -5 5 -10 10 -10 6 0 10 5 10 10 0 6 -4 10 -10 10 -5
0 -10 -4 -10 -10z"/>
<path d="M11600 3410 c0 -5 7 -10 16 -10 8 0 12 5 9 10 -3 6 -10 10 -16 10 -5
0 -9 -4 -9 -10z"/>
<path d="M11812 2238 c-18 -18 -14 -38 8 -38 15 0 20 7 20 25 0 27 -9 32 -28
13z"/>
<path d="M13561 14955 c-39 -40 -48 -45 -85 -43 l-41 1 43 4 c28 3 42 9 42 19
0 20 -83 19 -100 -1 -7 -8 -23 -15 -36 -15 -21 0 -24 -5 -24 -35 0 -34 -1 -35
-42 -36 -24 -1 -35 -3 -25 -6 22 -6 24 -70 2 -99 -13 -17 -14 -17 -15 -1 0 13
-9 17 -41 17 -38 0 -42 -2 -56 -40 -9 -22 -19 -40 -23 -40 -4 0 -14 17 -23 38
-12 29 -15 32 -16 15 -1 -20 -6 -23 -41 -23 -22 0 -40 -4 -40 -10 0 -5 -18
-10 -40 -10 l-40 0 0 -45 c0 -41 -2 -45 -25 -45 -22 0 -25 -4 -25 -39 0 -36 3
-40 28 -44 19 -3 14 -4 -15 -6 -24 0 -43 -5 -43 -11 0 -5 -18 -10 -39 -10
l-39 0 3 -102 c1 -57 1 -86 -2 -65 -4 36 -5 37 -44 37 l-39 0 0 73 c-1 107
-23 59 -28 -60 -4 -81 -2 -93 12 -93 12 0 16 -10 16 -40 0 -29 -4 -40 -15 -40
-11 0 -15 -11 -15 -40 0 -39 -1 -40 -35 -40 -34 0 -35 -1 -35 -40 0 -22 5 -40
10 -40 6 0 10 11 10 25 0 23 4 25 40 25 22 0 40 4 40 9 0 5 36 12 79 16 l80 7
4 36 c3 21 3 -9 2 -65 l-3 -103 39 0 c28 0 39 -4 39 -15 0 -11 -11 -15 -40
-15 l-40 0 0 -48 c0 -41 5 -52 33 -77 l32 -30 -32 -3 c-21 -2 -33 -9 -33 -18
0 -10 -12 -14 -40 -14 -29 0 -40 -4 -40 -15 0 -11 11 -15 40 -15 29 0 40 4 40
15 0 11 11 15 40 15 29 0 40 4 40 15 0 11 11 15 40 15 l40 0 0 -40 c0 -22 5
-40 10 -40 6 0 10 18 10 40 0 29 4 40 15 40 11 0 15 11 15 39 0 36 -3 40 -27
44 -16 2 10 4 57 4 47 0 66 -2 43 -4 -58 -6 -60 -33 -3 -33 22 0 40 5 40 10 0
6 35 11 83 12 45 1 63 3 40 5 -43 4 -43 4 -43 44 l0 39 55 0 55 0 0 40 0 39
-57 4 c-32 2 -3 4 65 5 l122 2 0 36 0 36 78 -4 c42 -3 60 -3 40 -1 -32 4 -38
8 -38 29 0 21 4 24 40 24 22 0 40 5 40 10 0 6 18 10 39 10 30 0 47 7 73 31 33
31 36 32 121 30 66 -2 87 1 87 11 0 10 34 13 160 13 l160 0 0 -42 0 -43 40 0
c22 0 40 5 40 10 0 6 18 10 40 10 38 0 40 -2 40 -30 l0 -30 79 0 c79 0 80 0
84 28 3 19 4 14 6 -15 0 -24 5 -43 10 -43 5 0 11 -23 13 -51 3 -28 11 -54 17
-59 7 -4 34 -5 62 -2 44 4 49 3 49 -16 0 -17 7 -22 43 -25 l42 -4 -42 -1 -43
-2 0 -40 c0 -36 3 -40 25 -40 22 0 25 -4 25 -39 0 -35 -3 -40 -27 -44 -16 -3
9 -3 55 0 l82 5 0 -42 0 -42 78 4 c42 3 60 3 40 1 -38 -4 -38 -4 -38 -50 l0
-45 80 7 80 7 0 -41 0 -41 80 0 80 0 0 40 0 40 40 0 c29 0 40 -4 40 -15 0 -11
11 -15 40 -15 29 0 40 4 40 15 0 11 11 15 40 15 29 0 40 4 40 15 0 11 11 15
40 15 36 0 40 3 40 25 0 25 1 25 80 25 l80 0 0 -40 c0 -22 5 -40 10 -40 6 0
10 18 10 40 0 29 4 40 15 40 11 0 15 11 15 39 0 33 -4 40 -22 44 -13 3 1 3 30
2 l52 -4 0 40 0 40 65 -7 65 -7 0 87 c0 69 3 86 15 86 8 0 25 11 39 25 19 18
36 25 66 25 29 0 40 4 40 15 0 9 9 15 25 15 23 0 25 4 25 40 0 22 4 40 9 40 6
0 11 19 13 43 3 42 3 42 46 45 23 2 42 7 42 13 0 5 18 9 40 9 22 0 40 5 40 10
0 6 18 10 40 10 29 0 40 4 40 15 0 12 16 15 80 15 79 0 80 0 80 25 0 23 4 25
40 25 33 0 40 3 40 20 0 19 6 20 83 18 45 0 67 -3 50 -5 -18 -2 -33 -8 -33
-12 0 -4 16 -22 35 -39 25 -23 44 -32 70 -32 35 0 35 0 35 45 l0 45 40 0 40 0
0 -51 0 -51 80 7 80 7 0 -41 0 -41 40 0 40 0 0 40 0 40 40 0 40 0 0 -80 0 -80
40 0 40 0 0 65 0 65 40 0 c29 0 40 4 40 15 0 11 -11 15 -40 15 l-40 0 0 40 0
40 -40 0 -40 0 0 40 0 40 40 0 c22 0 40 5 40 10 0 6 18 10 40 10 33 0 40 3 40
20 0 17 -7 20 -40 20 -22 0 -40 5 -40 10 0 6 7 10 15 10 11 0 15 11 15 40 0
33 -3 40 -20 40 -17 0 -20 7 -20 40 0 38 2 40 30 40 28 0 30 2 30 40 0 29 4
40 15 40 8 0 15 7 15 15 0 11 11 15 40 15 l40 0 0 65 0 65 -2010 0 -2010 0 0
-40 c0 -33 -3 -40 -20 -40 -17 0 -20 7 -20 40 0 22 -3 40 -7 40 -5 0 -28 -21
-52 -45z m-181 -124 c0 -6 -4 -13 -10 -16 -5 -3 -10 1 -10 9 0 9 5 16 10 16 6
0 10 -4 10 -9z m3790 -271 c0 -22 -4 -40 -10 -40 -5 0 -10 18 -10 40 0 22 5
40 10 40 6 0 10 -18 10 -40z m-2947 -277 c-13 -2 -33 -2 -45 0 -13 2 -3 4 22
4 25 0 35 -2 23 -4z m-1423 -123 l0 -40 -40 0 -40 0 0 40 0 40 40 0 40 0 0
-40z m3183 -197 c-13 -2 -33 -2 -45 0 -13 2 -3 4 22 4 25 0 35 -2 23 -4z
m-1040 -80 c-13 -2 -33 -2 -45 0 -13 2 -3 4 22 4 25 0 35 -2 23 -4z"/>
<path d="M21980 14976 c0 -13 -5 -26 -11 -28 -5 -2 -11 -26 -13 -53 -2 -27 -8
-51 -14 -53 -7 -2 -12 -11 -12 -21 0 -9 -7 -26 -15 -37 -8 -10 -15 -29 -15
-40 0 -12 -11 -29 -24 -38 -14 -8 -32 -29 -42 -45 -10 -17 -23 -27 -31 -24 -7
3 -16 -2 -19 -11 -4 -9 -26 -28 -50 -42 -24 -14 -44 -33 -44 -42 0 -15 -2 -15
-10 -2 -8 13 -10 12 -10 -2 0 -11 -8 -18 -19 -18 -11 0 -22 -4 -25 -8 -3 -5
-34 -17 -70 -26 -53 -15 -90 -17 -203 -13 -76 3 -147 7 -158 9 -62 11 -95 22
-105 33 -6 7 -19 11 -30 8 -10 -3 -29 2 -41 11 -16 11 -27 12 -41 5 -12 -6
-18 -6 -18 1 0 5 -11 10 -25 10 -16 0 -25 -6 -25 -15 0 -8 -7 -15 -15 -15 -19
0 -19 -39 0 -64 8 -11 15 -37 15 -57 0 -21 4 -39 9 -41 5 -1 12 -38 16 -80 l7
-78 -31 0 c-24 0 -31 -4 -31 -20 0 -17 7 -20 40 -20 33 0 40 3 40 20 0 17 7
20 40 20 38 0 40 -2 40 -30 0 -28 -2 -30 -40 -30 -22 0 -40 -4 -40 -9 0 -5
-12 -12 -26 -15 -21 -6 -23 -10 -14 -21 8 -10 26 -12 66 -8 46 5 54 3 54 -11
0 -12 10 -16 40 -16 22 0 40 -4 40 -10 0 -5 -9 -10 -20 -10 -17 0 -20 -7 -20
-40 0 -33 3 -40 20 -40 11 0 20 7 20 15 0 8 4 15 10 15 15 0 30 -36 30 -72 0
-25 7 -38 27 -53 15 -11 35 -28 45 -37 10 -10 18 -14 18 -8 0 5 7 7 15 4 8 -4
15 -17 15 -30 0 -21 4 -24 40 -24 36 0 40 -2 40 -25 0 -24 3 -25 55 -25 42 0
55 -3 55 -15 0 -8 -7 -15 -15 -15 -9 0 -15 -9 -15 -25 0 -20 5 -25 25 -25 23
0 25 4 25 40 0 29 4 40 15 40 11 0 15 -12 15 -45 0 -33 4 -45 15 -45 8 0 15
-7 15 -15 0 -12 14 -15 65 -15 l65 0 2 -62 c1 -50 2 -54 5 -20 4 41 5 42 39
42 24 0 34 5 34 15 0 11 11 15 40 15 29 0 40 -4 40 -15 0 -11 -11 -15 -40 -15
l-40 0 0 -100 0 -100 25 0 c14 0 28 7 31 15 8 21 24 19 24 -3 0 -10 6 -24 12
-30 9 -9 9 -15 2 -20 -13 -9 -16 -52 -4 -52 5 0 16 -13 25 -30 10 -19 11 -30
5 -30 -6 0 -8 -4 -5 -10 3 -5 14 -10 24 -10 15 0 20 -14 30 -74 8 -50 17 -76
28 -80 10 -4 13 -14 9 -31 -5 -18 -1 -28 14 -37 16 -10 20 -24 20 -70 0 -32
-4 -58 -10 -58 -5 0 -10 -16 -10 -36 0 -29 8 -44 41 -76 30 -30 38 -42 29 -48
-11 -7 -11 -27 -2 -104 7 -52 12 -122 12 -155 0 -50 3 -61 16 -61 15 0 16 -9
10 -64 -4 -43 -3 -65 5 -68 6 -2 12 -40 14 -92 3 -53 9 -92 16 -96 7 -5 13
-61 17 -164 l5 -156 -32 0 c-26 0 -31 -4 -31 -23 0 -29 -29 -57 -58 -57 -19 0
-22 -6 -22 -40 0 -29 4 -40 15 -40 11 0 15 -11 15 -40 0 -22 -4 -40 -10 -40
-5 0 -10 -18 -10 -40 0 -22 5 -40 10 -40 6 0 10 -18 10 -40 l0 -40 -55 0 c-50
0 -55 -2 -55 -22 0 -12 -7 -30 -17 -40 -15 -17 -14 -18 40 -18 l57 0 0 -40 0
-40 -40 0 c-29 0 -40 4 -40 15 0 11 -12 15 -44 15 -26 0 -48 -6 -56 -15 -11
-13 -5 -15 44 -15 l56 0 0 -39 0 -38 -157 -6 c-90 -3 -159 -1 -161 4 -2 5 -22
8 -45 8 -23 -1 -34 -3 -24 -6 12 -3 17 -15 17 -43 l0 -39 -52 4 c-29 1 -43 1
-30 -2 18 -4 22 -11 22 -44 0 -28 4 -39 15 -39 8 0 15 -7 15 -15 0 -11 -11
-15 -40 -15 -36 0 -40 -2 -40 -25 0 -16 6 -25 15 -25 11 0 15 -11 15 -40 0
-22 -4 -40 -10 -40 -5 0 -10 -15 -10 -34 0 -56 -8 -66 -51 -66 -21 0 -39 5
-39 10 0 6 18 10 40 10 l40 0 0 40 0 40 -120 0 c-100 0 -120 3 -120 15 0 11
-11 15 -40 15 -29 0 -40 -4 -40 -15 0 -11 -11 -15 -40 -15 -29 0 -40 4 -40 15
0 8 -7 15 -15 15 -13 0 -15 -22 -15 -135 0 -113 -2 -135 -15 -135 -11 0 -15
11 -15 40 0 22 -4 40 -10 40 -5 0 -10 18 -10 40 0 22 5 40 10 40 6 0 10 25 10
55 0 30 -4 55 -10 55 -5 0 -10 -25 -10 -55 0 -30 -4 -55 -10 -55 -5 0 -10 -18
-10 -40 0 -22 5 -40 10 -40 6 0 10 -18 10 -40 0 -29 -4 -40 -15 -40 -11 0 -15
11 -15 40 0 33 -3 40 -20 40 -17 0 -20 -7 -20 -40 0 -29 4 -40 15 -40 12 0 15
-16 15 -80 0 -47 -4 -80 -10 -80 -5 0 -10 -18 -10 -40 0 -29 4 -40 15 -40 11
0 15 11 15 40 0 29 4 40 15 40 8 0 15 -7 15 -15 0 -8 8 -15 19 -15 10 0 26
-11 35 -25 15 -23 15 -27 0 -50 -9 -14 -25 -25 -35 -25 -11 0 -19 -7 -19 -15
0 -11 11 -15 40 -15 40 0 40 0 40 -39 0 -28 -5 -40 -16 -43 -9 -2 47 -3 123
-4 76 0 130 1 121 4 -14 2 -18 13 -18 43 0 37 2 39 30 39 28 0 30 2 30 40 0
22 5 40 10 40 6 0 10 -18 10 -40 0 -29 4 -40 15 -40 11 0 15 -11 15 -40 l0
-40 95 0 95 0 0 -39 c0 -22 5 -41 11 -43 7 -2 13 -59 17 -161 2 -86 9 -157 13
-157 5 0 9 -27 9 -59 0 -33 5 -63 10 -66 18 -11 11 -34 -12 -37 -21 -3 -20 -4
10 -33 29 -27 32 -36 32 -88 0 -55 28 -137 37 -110 4 10 8 9 19 -1 16 -16 19
-86 4 -86 -5 0 -10 -19 -10 -41 0 -36 6 -48 45 -86 36 -35 45 -50 45 -78 0
-19 -4 -35 -10 -35 -5 0 -10 18 -10 40 0 22 -4 40 -10 40 -5 0 -10 -16 -10
-36 0 -30 8 -44 42 -78 35 -33 40 -41 25 -44 -15 -3 -18 -12 -16 -54 2 -38 -1
-52 -14 -60 -11 -6 -17 -22 -17 -44 0 -28 -10 -44 -58 -92 -32 -31 -61 -65
-65 -74 -7 -21 -33 -24 -40 -5 -2 7 -39 -23 -86 -70 -45 -46 -88 -83 -96 -83
-11 0 -15 -11 -15 -40 0 -22 -4 -40 -10 -40 -5 0 -10 -18 -10 -40 0 -22 -4
-40 -10 -40 -5 0 -10 11 -10 25 0 30 -11 32 -35 5 -10 -11 -13 -20 -7 -20 17
0 16 -87 0 -93 -18 -6 18 -45 45 -49 24 -4 36 -28 13 -28 -9 0 -16 -7 -16 -15
0 -11 11 -15 40 -15 24 0 40 5 40 12 0 7 18 -6 40 -27 22 -21 40 -43 40 -48 0
-6 12 -21 27 -34 21 -20 23 -27 12 -34 -11 -8 -8 -15 16 -36 25 -22 29 -33 30
-77 0 -45 3 -53 29 -69 21 -14 26 -21 17 -30 -17 -17 -13 -27 9 -27 17 0 20
-7 20 -43 0 -38 5 -48 42 -82 23 -22 36 -32 29 -22 -20 25 -6 33 23 13 14 -9
32 -16 41 -16 8 0 15 -5 15 -11 0 -5 4 -8 9 -4 5 3 13 0 16 -6 4 -5 13 -8 21
-5 8 3 34 -13 61 -39 46 -45 63 -54 63 -35 0 6 19 10 42 10 34 0 47 5 64 28
l23 27 10 -25 10 -25 7 23 c6 21 7 21 19 5 12 -16 20 -10 92 62 44 44 92 91
106 104 27 24 27 24 27 3 0 -12 -5 -22 -11 -22 -6 0 -17 -6 -24 -14 -15 -15
-2 -36 22 -36 7 0 13 -7 13 -15 0 -18 1 -18 35 -5 15 6 23 15 19 21 -4 8 -9 7
-15 -2 -6 -10 -9 -11 -9 -1 0 6 -6 12 -14 12 -10 0 -12 13 -8 53 4 45 10 57
45 90 22 20 44 37 48 37 5 0 20 11 34 25 l25 26 0 3574 0 3575 -40 0 c-22 0
-40 -4 -40 -10 0 -5 -18 -10 -40 -10 -22 0 -40 -4 -40 -10 0 -5 -11 -10 -23
-10 -31 0 -57 -29 -57 -63 0 -25 -3 -27 -40 -27 l-40 0 0 65 0 65 -80 0 c-64
0 -80 -3 -80 -15 0 -8 -5 -15 -10 -15 -6 0 -13 7 -16 15 -4 9 -19 15 -40 15
-29 0 -34 -3 -34 -24z m50 -46 c0 -5 -7 -10 -15 -10 -8 0 -15 5 -15 10 0 6 7
10 15 10 8 0 15 -4 15 -10z m433 -17 c-13 -2 -33 -2 -45 0 -13 2 -3 4 22 4 25
0 35 -2 23 -4z m-342 -103 c21 0 39 -4 39 -10 0 -5 -18 -10 -39 -10 -29 0 -41
-5 -44 -17 -3 -10 -5 2 -5 27 0 25 2 37 5 28 3 -13 15 -18 44 -18z m-96 -90
c-3 -5 -10 -10 -16 -10 -5 0 -9 5 -9 10 0 6 7 10 16 10 8 0 12 -4 9 -10z m5
-1920 c0 -29 -4 -40 -15 -40 -11 0 -15 11 -15 40 0 29 4 40 15 40 11 0 15 -11
15 -40z m57 -262 c-2 -13 -4 -3 -4 22 0 25 2 35 4 23 2 -13 2 -33 0 -45z m13
-112 c0 -8 -4 -18 -10 -21 -5 -3 -10 3 -10 14 0 12 5 21 10 21 6 0 10 -6 10
-14z m-340 -1442 c0 -8 -4 -12 -10 -9 -5 3 -10 10 -10 16 0 5 5 9 10 9 6 0 10
-7 10 -16z m143 9 c-13 -2 -33 -2 -45 0 -13 2 -3 4 22 4 25 0 35 -2 23 -4z
m-463 -388 c0 -11 -11 -15 -40 -15 -29 0 -40 4 -40 15 0 11 11 15 40 15 29 0
40 -4 40 -15z m-320 -145 c0 -5 19 -11 43 -12 l42 -1 -42 -4 -43 -4 0 -45 0
-44 -42 1 c-30 2 -35 3 -15 6 24 4 27 8 27 44 0 35 -3 39 -25 39 -16 0 -25 6
-25 15 0 11 11 15 40 15 22 0 40 -4 40 -10z m80 -220 c0 -29 -4 -40 -15 -40
-11 0 -15 11 -15 40 0 29 4 40 15 40 11 0 15 -11 15 -40z m534 -1095 c3 -8 1
-15 -4 -15 -6 0 -10 7 -10 15 0 8 2 15 4 15 2 0 6 -7 10 -15z m103 -382 c-3
-2 -13 -3 -23 -1 -16 3 -16 4 2 22 18 18 19 18 22 2 2 -10 1 -20 -1 -23z"/>
<path d="M17680 14800 c0 -22 5 -40 10 -40 6 0 10 18 10 40 0 22 -4 40 -10 40
-5 0 -10 -18 -10 -40z"/>
<path d="M17778 14833 c12 -2 32 -2 45 0 12 2 2 4 -23 4 -25 0 -35 -2 -22 -4z"/>
<path d="M17618 14673 c12 -2 32 -2 45 0 12 2 2 4 -23 4 -25 0 -35 -2 -22 -4z"/>
<path d="M17615 14603 c11 -3 26 -14 33 -24 18 -26 32 -24 32 6 0 23 -4 25
-42 24 -24 -1 -34 -4 -23 -6z"/>
<path d="M12860 14560 c0 -22 5 -40 10 -40 6 0 10 18 10 40 0 22 -4 40 -10 40
-5 0 -10 -18 -10 -40z"/>
<path d="M17680 14280 c0 -64 3 -80 15 -80 17 0 18 11 9 99 -10 87 -24 76 -24
-19z"/>
<path d="M12578 14283 c12 -2 32 -2 45 0 12 2 2 4 -23 4 -25 0 -35 -2 -22 -4z"/>
<path d="M16320 14265 c0 -11 11 -15 40 -15 22 0 40 4 40 9 0 6 19 12 43 14
23 2 5 4 -40 5 -68 2 -83 -1 -83 -13z"/>
<path d="M11360 14184 c0 -14 3 -14 15 -4 8 7 15 14 15 16 0 2 -7 4 -15 4 -8
0 -15 -7 -15 -16z"/>
<path d="M16338 14193 c12 -2 32 -2 45 0 12 2 2 4 -23 4 -25 0 -35 -2 -22 -4z"/>
<path d="M17298 14193 c12 -2 32 -2 45 0 12 2 2 4 -23 4 -25 0 -35 -2 -22 -4z"/>
<path d="M17538 14113 c12 -2 32 -2 45 0 12 2 2 4 -23 4 -25 0 -35 -2 -22 -4z"/>
<path d="M13538 14033 c12 -2 32 -2 45 0 12 2 2 4 -23 4 -25 0 -35 -2 -22 -4z"/>
<path d="M16130 14000 c0 -29 4 -40 15 -40 11 0 15 11 15 40 0 29 -4 40 -15
40 -11 0 -15 -11 -15 -40z"/>
<path d="M13458 13953 c12 -2 32 -2 45 0 12 2 2 4 -23 4 -25 0 -35 -2 -22 -4z"/>
<path d="M7850 13907 c0 -20 5 -27 20 -27 11 0 20 4 20 8 0 5 -9 17 -20 27
-20 18 -20 17 -20 -8z"/>
<path d="M7911 13864 c0 -11 3 -14 6 -6 3 7 2 16 -1 19 -3 4 -6 -2 -5 -13z"/>
<path d="M8000 13736 c0 -9 5 -16 10 -16 6 0 10 4 10 9 0 6 -4 13 -10 16 -5 3
-10 -1 -10 -9z"/>
<path d="M15660 13600 c0 -22 5 -40 10 -40 6 0 10 18 10 40 0 22 -4 40 -10 40
-5 0 -10 -18 -10 -40z"/>
<path d="M10080 13309 c0 -5 5 -7 10 -4 6 3 10 8 10 11 0 2 -4 4 -10 4 -5 0
-10 -5 -10 -11z"/>
<path d="M9760 13230 c0 -5 18 -10 40 -10 22 0 40 5 40 10 0 6 -18 10 -40 10
-22 0 -40 -4 -40 -10z"/>
<path d="M13323 12400 c0 -25 2 -35 4 -22 2 12 2 32 0 45 -2 12 -4 2 -4 -23z"/>
<path d="M13414 12246 c3 -22 11 -43 18 -47 15 -10 11 -14 -24 -23 -17 -4 -32
-1 -42 9 -8 8 -16 15 -18 15 -2 0 -3 -36 -2 -80 0 -58 -3 -80 -12 -80 -7 0
-15 16 -17 38 -2 20 -3 8 -1 -28 2 -36 -3 -110 -12 -165 -8 -55 -18 -121 -21
-147 -2 -26 -11 -52 -19 -59 -8 -6 -14 -18 -14 -26 0 -23 -49 -111 -96 -173
-48 -62 -179 -200 -191 -200 -4 0 -27 -18 -51 -39 -24 -21 -61 -47 -82 -57
-21 -10 -36 -22 -34 -26 3 -5 -4 -8 -15 -8 -11 0 -23 -4 -26 -10 -3 -5 -15
-10 -25 -10 -24 0 -90 -31 -90 -42 0 -4 -25 -8 -56 -8 -31 0 -53 -4 -49 -9 3
-5 -7 -11 -22 -13 -42 -5 -38 -23 9 -38 40 -13 41 -15 16 -18 -35 -4 -35 -15
-3 -40 17 -14 50 -22 108 -28 77 -8 80 -9 37 -15 l-45 -6 40 -1 c31 -2 49 -10
75 -34 l35 -33 -35 -6 -35 -6 43 -2 c23 0 42 -5 42 -11 0 -5 18 -10 40 -10 36
0 40 -2 40 -25 0 -14 -4 -25 -10 -25 -6 0 -10 -60 -10 -160 0 -100 4 -160 10
-160 6 0 11 49 12 123 l2 122 5 -130 c4 -71 3 -134 -1 -139 -5 -6 -8 -20 -8
-33 0 -14 -6 -23 -15 -23 -11 0 -15 -11 -15 -40 0 -38 2 -40 30 -40 28 0 30
-2 30 -40 0 -22 -4 -40 -10 -40 -5 0 -10 -18 -10 -40 0 -36 3 -40 25 -40 25 0
25 -1 25 -79 0 -54 -4 -81 -12 -85 -9 -3 -6 -11 10 -24 22 -20 30 -52 13 -52
-12 0 -22 -112 -14 -180 3 -33 10 -60 14 -60 5 0 9 7 9 16 0 8 4 13 9 10 4 -3
6 -28 3 -56 -3 -33 -1 -50 7 -50 6 0 11 -17 11 -40 0 -22 5 -40 10 -40 6 0 10
-18 10 -40 0 -33 3 -40 20 -40 17 0 20 -7 20 -40 0 -33 4 -40 19 -40 16 0 20
-11 26 -80 7 -83 25 -111 25 -40 0 30 4 40 16 40 14 0 16 -9 12 -50 -5 -46 -3
-53 23 -75 34 -28 36 -35 9 -35 -11 0 -20 -4 -20 -8 0 -20 25 -29 68 -25 40 4
49 2 60 -18 12 -18 12 -23 0 -31 -10 -7 -7 -13 15 -31 15 -13 27 -30 27 -39 0
-31 34 -87 53 -88 10 0 29 -12 42 -26 22 -23 30 -26 70 -22 38 5 48 2 60 -15
13 -18 28 -21 107 -25 51 -3 95 -8 98 -12 3 -4 40 -11 83 -15 67 -6 77 -5 77
9 0 12 10 16 40 16 22 0 40 -4 40 -9 0 -6 19 -11 43 -13 32 -2 44 -8 52 -25
11 -27 42 -30 47 -6 3 14 12 17 51 14 41 -2 47 0 47 17 0 16 10 20 60 25 33 4
86 5 118 3 47 -3 50 -2 17 4 l-40 7 43 1 c23 1 42 7 42 12 0 6 18 10 40 10 29
0 40 -4 40 -15 0 -8 5 -15 10 -15 6 0 13 7 16 15 5 11 22 15 70 15 l64 0 0 40
c0 22 4 40 10 40 15 0 30 -36 30 -74 l0 -36 70 0 c56 0 70 -3 70 -15 0 -8 6
-15 13 -15 14 0 27 -119 27 -242 0 -27 5 -48 10 -48 6 0 10 40 10 100 0 55 4
100 8 100 20 0 29 -25 24 -70 -3 -31 -1 -50 6 -50 5 0 13 -36 17 -80 8 -87 22
-106 28 -37 l4 42 1 -42 c1 -24 7 -43 12 -43 6 0 10 -18 10 -39 0 -22 5 -41
12 -43 9 -3 12 -59 14 -201 2 -164 0 -197 -12 -197 -11 0 -14 -18 -14 -80 0
-64 -3 -80 -15 -80 -8 0 -15 -7 -15 -15 0 -11 11 -15 40 -15 33 0 40 -3 40
-19 0 -16 8 -21 43 -24 l42 -4 -47 -1 c-50 -2 -55 -8 -38 -47 7 -17 9 -17 9
-2 1 13 10 17 36 17 28 0 35 -4 35 -20 0 -18 7 -20 80 -20 47 0 80 4 80 10 0
6 18 10 40 10 37 0 40 2 40 28 1 23 2 24 11 10 14 -25 29 -22 29 5 0 13 10 33
23 44 12 11 29 31 37 44 8 13 30 38 48 56 17 18 32 37 32 42 0 6 9 15 20 21
11 6 20 16 20 23 0 7 10 19 21 27 61 43 101 72 117 86 30 26 92 64 107 64 8 0
17 4 20 10 7 12 196 102 250 120 22 7 45 15 50 19 6 3 19 7 30 8 11 2 45 8 75
14 56 12 275 15 308 5 10 -3 26 0 36 7 18 13 17 15 -15 38 -58 40 -212 201
-244 253 -16 27 -43 75 -60 105 -16 31 -33 57 -37 59 -4 2 -13 29 -20 60 -11
50 -13 54 -18 28 -8 -48 -25 -30 -23 24 2 46 1 50 -21 50 -13 0 -26 -7 -30
-15 -3 -9 -18 -15 -34 -15 -16 0 -35 -7 -42 -15 -6 -8 -21 -17 -33 -21 -12 -4
-33 -15 -47 -25 -14 -10 -36 -20 -50 -23 -14 -2 -36 -9 -50 -14 -14 -6 -68
-20 -121 -32 -111 -24 -339 -31 -376 -12 -12 7 -35 12 -51 12 -15 0 -48 6 -73
14 -24 7 -63 19 -86 26 -24 7 -43 19 -43 27 0 7 -11 13 -24 13 -13 0 -29 7
-36 15 -7 8 -18 15 -25 15 -7 0 -23 10 -36 23 -13 12 -41 35 -61 50 -21 16
-38 34 -38 41 0 8 -13 19 -29 25 -16 7 -28 19 -27 29 0 9 -10 21 -22 28 -15 7
-19 13 -11 16 9 3 7 11 -9 28 -12 13 -31 44 -43 69 -11 25 -29 65 -40 88 -29
66 -50 176 -56 300 -6 114 -3 140 38 328 18 82 74 225 88 225 4 0 12 13 19 30
17 38 124 152 187 198 27 20 72 49 100 63 27 14 59 31 70 37 54 32 218 84 309
98 131 20 177 32 175 47 -3 28 2 44 27 70 23 26 57 92 52 101 -2 2 10 14 25
26 15 12 27 30 25 39 -1 9 6 28 16 44 10 15 21 47 24 72 4 37 2 45 -12 45 -9
0 -15 5 -14 12 2 7 -13 17 -32 24 -42 14 -43 21 -10 39 l25 14 -25 2 c-17 1
-20 3 -7 6 11 3 17 14 17 35 0 22 -4 29 -14 25 -11 -4 -14 1 -11 21 3 32 -10
52 -36 52 -11 0 -19 5 -19 10 0 6 9 10 20 10 19 0 20 6 18 88 -2 48 -7 90 -13
94 -5 4 0 8 13 8 12 0 21 5 20 13 -2 6 5 11 15 11 14 -2 15 1 6 12 -6 8 -18
14 -25 14 -20 0 -17 38 4 43 16 4 16 5 0 6 -10 0 -18 8 -18 16 0 8 -4 15 -10
15 -6 0 -10 33 -10 80 0 47 -4 80 -10 80 -5 0 -10 -18 -10 -40 l0 -40 -40 0
-40 0 0 40 c0 22 5 40 10 40 6 0 10 18 10 40 0 22 -4 40 -10 40 -5 0 -10 14
-10 30 0 28 -2 30 -37 30 l-38 0 2 92 1 93 -12 -85 c-10 -65 -14 -75 -15 -42
0 23 -5 42 -11 42 -5 0 -10 18 -10 40 0 33 -3 40 -20 40 -17 0 -20 -7 -20 -40
l0 -40 -40 0 -40 0 0 40 c0 33 -3 40 -20 40 -17 0 -20 7 -21 43 -1 23 -3 34
-6 25 -5 -22 -23 -24 -23 -3 0 21 -38 19 -43 -2 -4 -17 -5 -17 -6 0 -2 35 -21
16 -21 -22 l0 -40 -50 1 c-50 0 -50 0 -50 33 l0 33 -80 7 c-58 5 -80 11 -80
21 0 9 -11 14 -30 14 -23 0 -30 -4 -30 -20 0 -16 7 -20 30 -20 28 0 30 -3 30
-35 0 -34 -1 -35 -40 -35 -23 0 -40 -5 -40 -11 0 -8 -19 -10 -65 -5 -55 5 -65
4 -65 -9 0 -8 -7 -15 -15 -15 -8 0 -15 -9 -15 -20 0 -11 4 -20 9 -20 5 0 4
-11 -2 -25 -7 -13 -16 -24 -22 -23 -18 2 -65 -14 -65 -23 0 -5 5 -9 11 -9 6 0
9 -6 6 -12 -2 -7 -11 -12 -19 -10 -27 4 -68 -55 -70 -101 -1 -37 -2 -38 -5 -9
-2 17 -8 32 -12 32 -4 0 -22 -16 -40 -35 -26 -29 -39 -35 -71 -35 -22 0 -40
-4 -40 -10 0 -5 -18 -10 -39 -10 -34 0 -40 4 -45 26 -4 15 -4 57 0 95 7 69 7
69 -18 69 -14 0 -31 7 -38 15 -7 8 -16 13 -20 10 -4 -3 -24 11 -44 30 -30 28
-46 35 -77 35 -32 0 -39 3 -39 20 0 17 -7 20 -40 20 -24 0 -40 5 -40 12 0 6
-18 28 -39 50 -33 31 -46 38 -80 38 -34 0 -41 3 -41 20 0 17 -7 20 -40 20 -22
0 -40 5 -40 10 0 6 -18 10 -40 10 -22 0 -40 5 -40 10 0 6 -19 11 -42 11 -24 1
-35 3 -25 6 12 3 17 15 17 44 l0 39 -55 0 c-52 0 -55 -1 -55 -25 0 -22 -4 -25
-40 -25 -22 0 -40 5 -40 10 0 6 -11 10 -25 10 -24 0 -25 3 -25 55 0 42 -3 55
-15 55 -10 0 -15 -10 -16 -27 l-1 -28 -14 30 -15 30 5 -39z m826 -382 c0 -8
-4 -12 -10 -9 -5 3 -10 10 -10 16 0 5 5 9 10 9 6 0 10 -7 10 -16z m80 -80 c0
-8 -4 -12 -10 -9 -5 3 -10 10 -10 16 0 5 5 9 10 9 6 0 10 -7 10 -16z m383
-2861 c-13 -2 -33 -2 -45 0 -13 2 -3 4 22 4 25 0 35 -2 23 -4z m-1243 -74 c0
-5 -4 -9 -10 -9 -5 0 -10 7 -10 16 0 8 5 12 10 9 6 -3 10 -10 10 -16z m168
-61 c18 -18 15 -28 -8 -28 -13 0 -20 7 -20 20 0 23 10 26 28 8z"/>
<path d="M13546 12234 c-10 -26 -7 -34 14 -34 11 0 20 4 20 9 0 17 -12 41 -20
41 -4 0 -11 -7 -14 -16z"/>
<path d="M13920 12109 c0 -24 23 -21 28 4 2 10 -3 17 -12 17 -10 0 -16 -9 -16
-21z"/>
<path d="M14860 12050 c0 -5 5 -10 10 -10 6 0 10 5 10 10 0 6 -4 10 -10 10 -5
0 -10 -4 -10 -10z"/>
<path d="M15200 12050 c0 -5 18 -10 40 -10 22 0 40 5 40 10 0 6 -18 10 -40 10
-22 0 -40 -4 -40 -10z"/>
<path d="M14862 11988 c-16 -16 -15 -28 3 -28 8 0 15 9 15 20 0 23 -2 24 -18
8z"/>
<path d="M905 11890 c-4 -6 6 -10 22 -10 22 0 25 2 13 10 -19 12 -27 12 -35 0z"/>
<path d="M14759 11879 c-15 -10 -14 -10 19 -14 12 -1 22 1 22 5 0 13 -26 19
-41 9z"/>
<path d="M858 11863 c-24 -6 -23 -19 2 -26 15 -4 20 0 20 14 0 10 -1 18 -2 18
-2 -1 -11 -3 -20 -6z"/>
<path d="M15680 11840 c0 -5 18 -10 40 -10 22 0 40 5 40 10 0 6 -18 10 -40 10
-22 0 -40 -4 -40 -10z"/>
<path d="M808 11803 c12 -2 30 -2 40 0 9 3 -1 5 -23 4 -22 0 -30 -2 -17 -4z"/>
<path d="M14620 11735 c-10 -12 -10 -15 4 -15 9 0 16 7 16 15 0 8 -2 15 -4 15
-2 0 -9 -7 -16 -15z"/>
<path d="M14400 11670 c0 -27 3 -30 30 -30 36 0 38 9 7 38 -31 29 -37 28 -37
-8z"/>
<path d="M14540 11655 c-10 -12 -10 -15 4 -15 9 0 16 7 16 15 0 8 -2 15 -4 15
-2 0 -9 -7 -16 -15z"/>
<path d="M328 11643 c7 -3 16 -2 19 1 4 3 -2 6 -13 5 -11 0 -14 -3 -6 -6z"/>
<path d="M1420 11515 c0 -19 5 -35 10 -35 6 0 10 16 10 35 0 19 -4 35 -10 35
-5 0 -10 -16 -10 -35z"/>
<path d="M9486 10855 c4 -8 12 -15 20 -15 8 0 14 7 14 15 0 8 -9 15 -20 15
-13 0 -18 -5 -14 -15z"/>
<path d="M20560 10770 c0 -5 5 -10 11 -10 5 0 7 5 4 10 -3 6 -8 10 -11 10 -2
0 -4 -4 -4 -10z"/>
<path d="M20770 10770 c0 -5 7 -10 15 -10 8 0 15 5 15 10 0 6 -7 10 -15 10 -8
0 -15 -4 -15 -10z"/>
<path d="M9390 10735 c0 -24 2 -25 68 -23 48 1 55 3 25 5 -35 3 -43 8 -43 24
0 14 -7 19 -25 19 -20 0 -25 -5 -25 -25z"/>
<path d="M20560 10690 c0 -5 18 -10 40 -10 22 0 40 5 40 10 0 6 -18 10 -40 10
-22 0 -40 -4 -40 -10z"/>
<path d="M20018 10683 c12 -2 32 -2 45 0 12 2 2 4 -23 4 -25 0 -35 -2 -22 -4z"/>
<path d="M20090 10673 c0 -5 5 -15 10 -23 8 -12 10 -11 10 8 0 12 -4 22 -10
22 -5 0 -10 -3 -10 -7z"/>
<path d="M20800 10651 c0 -6 -17 -11 -40 -11 -33 0 -40 -3 -40 -20 0 -11 5
-20 10 -20 6 0 10 -18 10 -40 0 -38 2 -40 30 -40 28 0 30 -2 30 -40 0 -29 4
-40 15 -40 11 0 15 -11 15 -40 0 -29 4 -40 15 -40 11 0 15 -11 15 -40 0 -22 5
-40 10 -40 11 0 13 87 4 179 -6 56 -9 61 -30 61 -21 0 -24 5 -24 39 0 22 -5
42 -12 44 -20 8 12 27 45 27 15 0 27 5 27 10 0 6 -11 10 -24 10 -13 0 -31 3
-40 6 -9 3 -16 1 -16 -5z"/>
<path d="M20406 10639 c6 -11 74 -12 74 -1 0 4 -18 8 -40 8 -22 1 -37 -2 -34
-7z"/>
<path d="M20080 10628 c0 -18 18 -34 28 -24 3 4 -2 14 -11 23 -16 16 -17 16
-17 1z"/>
<path d="M20480 10590 c0 -6 33 -10 80 -10 47 0 80 4 80 10 0 6 -33 10 -80 10
-47 0 -80 -4 -80 -10z"/>
<path d="M19832 10493 c-3 -62 4 -73 49 -73 21 0 39 5 39 10 0 6 -18 10 -39
10 l-40 0 -4 48 -3 47 -2 -42z"/>
<path d="M20050 10514 c0 -3 5 -14 10 -25 13 -23 65 -27 56 -4 -4 11 1 15 19
15 14 0 25 5 25 10 0 6 -25 10 -55 10 -30 0 -55 -3 -55 -6z"/>
<path d="M20690 10512 c0 -5 12 -14 26 -21 22 -10 25 -9 22 6 -3 18 -48 32
-48 15z"/>
<path d="M560 10400 l0 -40 80 0 80 0 0 40 0 40 -80 0 -80 0 0 -40z"/>
<path d="M19736 10431 c-3 -5 1 -11 9 -15 9 -3 15 0 15 9 0 16 -16 20 -24 6z"/>
<path d="M20080 10400 c0 -22 5 -40 10 -40 6 0 10 18 10 40 0 22 -4 40 -10 40
-5 0 -10 -18 -10 -40z"/>
<path d="M20160 10430 c0 -5 7 -10 16 -10 8 0 12 5 9 10 -3 6 -10 10 -16 10
-5 0 -9 -4 -9 -10z"/>
<path d="M20273 10425 c-8 -9 -9 -16 -3 -20 6 -3 10 -1 10 6 0 10 3 10 12 1
18 -18 28 -15 28 8 0 23 -29 27 -47 5z"/>
<path d="M20540 10430 c0 -5 5 -10 10 -10 6 0 10 5 10 10 0 6 -4 10 -10 10 -5
0 -10 -4 -10 -10z"/>
<path d="M20727 10394 c-4 -4 -7 -14 -7 -23 0 -11 3 -12 11 -4 6 6 10 16 7 23
-2 6 -7 8 -11 4z"/>
<path d="M20170 10370 c-12 -7 -10 -9 7 -7 12 0 19 5 17 9 -6 10 -6 10 -24 -2z"/>
<path d="M20960 10280 c0 -27 3 -31 23 -28 16 2 22 10 22 28 0 18 -6 26 -22
28 -20 3 -23 -1 -23 -28z"/>
<path d="M19765 10270 c-3 -5 1 -10 9 -10 9 0 16 5 16 10 0 6 -4 10 -9 10 -6
0 -13 -4 -16 -10z"/>
<path d="M20800 10261 c0 -10 -7 -24 -15 -31 -22 -18 -18 -30 10 -30 23 0 25
4 25 40 0 22 -4 40 -10 40 -5 0 -10 -8 -10 -19z"/>
<path d="M19760 10209 c0 -5 14 -9 30 -9 17 0 30 4 30 8 0 5 -13 9 -30 10 -16
0 -30 -4 -30 -9z"/>
<path d="M19760 10122 c0 -10 -14 -30 -31 -45 -18 -15 -29 -31 -25 -35 4 -3
11 0 16 8 7 10 10 11 10 3 0 -7 7 -13 15 -13 11 0 15 -11 15 -40 l0 -40 40 0
40 0 0 -40 c0 -22 -4 -40 -10 -40 -5 0 -10 -18 -10 -40 l0 -40 50 0 50 0 0
119 0 120 38 4 c20 2 -14 1 -75 -1 -107 -5 -113 -4 -113 14 0 11 5 25 11 31
12 12 3 53 -12 53 -5 0 -9 -8 -9 -18z m5 -41 c-3 -6 -11 -11 -17 -11 -6 0 -6
6 2 15 14 17 26 13 15 -4z"/>
<path d="M19840 10131 c0 -10 148 -26 157 -17 4 3 -12 6 -35 6 -23 0 -42 5
-42 10 0 6 -18 10 -40 10 -22 0 -40 -4 -40 -9z"/>
<path d="M9600 10000 l0 -40 40 0 40 0 0 40 0 40 -40 0 -40 0 0 -40z"/>
<path d="M20000 9840 c0 -22 5 -40 10 -40 6 0 10 18 10 40 0 22 -4 40 -10 40
-5 0 -10 -18 -10 -40z"/>
<path d="M19839 9678 l-4 -43 43 4 c26 2 42 -1 42 -8 0 -14 77 -15 85 -1 4 6
-5 10 -19 10 -24 0 -26 4 -26 40 l0 40 -59 0 -59 0 -3 -42z"/>
<path d="M16240 8874 c0 -8 5 -12 10 -9 6 4 8 11 5 16 -9 14 -15 11 -15 -7z"/>
<path d="M21340 8370 c0 -5 5 -10 10 -10 6 0 10 5 10 10 0 6 -4 10 -10 10 -5
0 -10 -4 -10 -10z"/>
<path d="M16720 8210 c0 -6 7 -10 15 -10 8 0 15 2 15 4 0 2 -7 6 -15 10 -8 3
-15 1 -15 -4z"/>
<path d="M19280 7810 c0 -5 7 -10 15 -10 8 0 15 5 15 10 0 6 -7 10 -15 10 -8
0 -15 -4 -15 -10z"/>
<path d="M19325 7810 c-3 -5 1 -10 9 -10 13 0 16 -14 16 -80 0 -64 3 -80 15
-80 11 0 15 -11 15 -40 0 -32 4 -40 18 -40 10 0 22 -3 26 -7 7 -8 68 -6 99 3
12 4 17 16 17 45 0 32 -3 39 -20 39 -17 0 -20 7 -20 41 0 32 -3 40 -15 35 -8
-3 -15 0 -15 7 -1 17 -36 57 -50 57 -10 0 -10 -3 0 -15 11 -13 7 -15 -24 -15
-35 0 -49 13 -23 23 10 4 10 6 0 6 -7 1 -13 10 -13 21 0 21 -24 28 -35 10z
m195 -240 c0 -5 -18 -10 -40 -10 -22 0 -40 5 -40 10 0 6 18 10 40 10 22 0 40
-4 40 -10z"/>
<path d="M19260 7700 c6 -11 13 -20 15 -20 3 0 5 9 5 20 0 11 -7 20 -15 20
-13 0 -14 -4 -5 -20z"/>
<path d="M19600 7575 c0 -8 5 -15 10 -15 6 0 10 7 10 15 0 8 -4 15 -10 15 -5
0 -10 -7 -10 -15z"/>
<path d="M15298 7553 c12 -2 32 -2 45 0 12 2 2 4 -23 4 -25 0 -35 -2 -22 -4z"/>
<path d="M12480 6375 c0 -8 7 -15 16 -15 14 0 14 3 4 15 -7 8 -14 15 -16 15
-2 0 -4 -7 -4 -15z"/>
<path d="M13280 5495 c0 -8 7 -15 16 -15 14 0 14 3 4 15 -7 8 -14 15 -16 15
-2 0 -4 -7 -4 -15z"/>
<path d="M9040 5320 c0 -73 2 -80 20 -80 22 0 23 6 14 99 -5 41 -11 61 -20 61
-11 0 -14 -19 -14 -80z"/>
<path d="M9380 4880 c0 -22 -4 -40 -9 -40 -5 0 -12 -10 -14 -22 l-4 -23 -2 23
c-2 35 -19 26 -31 -18 -6 -22 -15 -40 -20 -40 -6 0 -5 -11 2 -25 6 -14 16 -25
23 -25 6 0 18 11 25 25 8 16 22 25 37 25 22 0 23 3 23 80 0 64 -3 80 -15 80
-11 0 -15 -11 -15 -40z"/>
<path d="M10212 4828 c6 -18 28 -21 28 -4 0 9 -7 16 -16 16 -9 0 -14 -5 -12
-12z"/>
<path d="M9440 4800 c0 -22 16 -26 40 -10 13 9 13 11 0 20 -24 16 -40 12 -40
-10z"/>
<path d="M240 3385 c0 -11 11 -15 40 -15 29 0 40 4 40 15 0 11 -11 15 -40 15
-29 0 -40 -4 -40 -15z"/>
<path d="M15900 3335 c-10 -12 -10 -15 4 -15 9 0 16 7 16 15 0 8 -2 15 -4 15
-2 0 -9 -7 -16 -15z"/>
<path d="M18960 2850 c0 -5 7 -10 16 -10 8 0 12 5 9 10 -3 6 -10 10 -16 10 -5
0 -9 -4 -9 -10z"/>
<path d="M19280 2850 c0 -5 -6 -10 -14 -10 -7 0 -19 -7 -26 -15 -18 -21 -40
-19 -40 5 0 22 -22 25 -92 14 -26 -5 -38 -12 -38 -23 0 -27 -17 -37 -56 -33
-25 3 -34 8 -30 18 3 8 -1 14 -9 14 -8 0 -15 -7 -15 -15 0 -11 -11 -15 -39
-15 -23 0 -41 -5 -44 -12 -6 -21 4 -48 19 -48 8 0 14 -10 14 -25 0 -31 -27
-34 -32 -3 -3 21 -4 21 -20 4 -15 -15 -18 -37 -18 -141 0 -90 -3 -125 -12
-128 -10 -3 -10 -9 0 -26 8 -14 10 -36 5 -64 -6 -37 -8 -39 -13 -17 -5 18 -9
2 -15 -52 -5 -56 -11 -78 -21 -78 -11 0 -14 -20 -14 -90 0 -79 -11 -135 -31
-150 -3 -3 -8 -27 -11 -53 -3 -26 -12 -56 -21 -65 -11 -12 -14 -31 -10 -69 3
-29 9 -53 14 -53 5 0 9 7 9 15 0 23 16 18 36 -12 10 -16 28 -36 40 -45 12 -10
30 -40 40 -68 10 -27 22 -50 27 -50 11 0 46 -42 47 -56 0 -13 62 -74 75 -74 6
0 38 -25 73 -56 40 -36 62 -50 62 -40 0 20 14 21 30 1 7 -8 26 -15 42 -15 20
0 37 -8 49 -24 11 -14 29 -23 44 -23 14 -1 32 -6 40 -13 10 -8 56 -14 123 -16
59 -2 115 -4 124 -5 9 0 19 -7 22 -15 7 -19 56 -19 56 1 0 8 7 15 15 15 10 0
15 -10 15 -30 0 -27 3 -30 31 -30 27 0 30 2 19 15 -10 12 -9 15 7 15 19 0 47
-37 42 -56 -2 -5 0 -24 4 -41 5 -24 12 -33 26 -33 11 0 22 6 24 13 3 6 6 0 6
-15 1 -27 3 -28 55 -28 35 0 58 5 66 15 10 12 9 16 -5 21 -15 6 -15 9 6 20 33
18 37 17 41 -7 3 -18 7 -16 38 18 19 20 26 30 14 20 -28 -23 -37 -22 -22 3 7
11 19 20 27 20 8 0 32 18 53 40 22 22 44 40 50 40 6 0 21 10 32 22 46 47 102
91 129 100 15 6 27 14 27 19 0 5 11 14 25 19 14 5 25 17 25 25 0 9 4 14 8 11
10 -6 77 63 68 71 -3 3 -14 0 -23 -8 -16 -13 -17 -12 -5 3 7 9 23 19 36 22 24
6 28 15 75 148 11 33 20 46 30 43 11 -4 11 -3 2 9 -9 11 -11 34 -6 80 6 53 4
68 -9 81 -15 15 -16 13 -16 -21 0 -29 -3 -34 -14 -25 -8 7 -16 45 -20 100 -7
93 -21 151 -37 151 -5 0 -9 13 -9 29 0 16 -7 34 -15 41 -8 7 -15 19 -15 26 0
8 -5 14 -11 14 -17 0 -38 32 -39 58 0 12 -3 22 -7 22 -8 0 -33 48 -33 62 0 12
-31 43 -57 57 -15 8 -21 18 -18 33 3 12 0 27 -6 35 -14 16 -71 45 -63 31 4 -7
2 -8 -5 -4 -6 4 -10 14 -9 23 2 8 -6 20 -16 27 -35 20 -57 43 -60 62 -2 11
-16 23 -36 30 -18 6 -39 18 -45 28 -7 9 -19 16 -28 16 -8 0 -17 3 -19 8 -1 4
-24 18 -50 31 -36 18 -58 22 -87 18 -26 -3 -47 0 -60 10 -14 9 -42 13 -82 12
-53 -2 -65 1 -80 19 -18 23 -39 29 -39 12 0 -6 -11 -5 -27 2 -16 6 -52 10 -80
9 -32 -1 -53 2 -53 8 0 6 -18 11 -40 11 -33 0 -40 3 -40 20 0 17 -7 20 -40 20
-22 0 -40 -4 -40 -10z m-120 -18 c0 -10 -22 -32 -32 -32 -4 0 -8 9 -8 20 0 13
7 20 20 20 11 0 20 -4 20 -8z"/>
<path d="M20220 2530 c0 -5 5 -10 10 -10 6 0 10 5 10 10 0 6 -4 10 -10 10 -5
0 -10 -4 -10 -10z"/>
<path d="M325 1980 c-3 -5 -1 -10 4 -10 6 0 11 5 11 10 0 6 -2 10 -4 10 -3 0
-8 -4 -11 -10z"/>
<path d="M22533 1683 c-10 -21 -32 -53 -50 -71 -38 -38 -39 -39 -15 -45 13 -4
11 -5 -6 -6 -13 -1 -26 -10 -31 -23 -5 -13 -18 -33 -29 -44 -11 -12 -26 -41
-33 -65 -6 -24 -20 -51 -30 -61 -11 -9 -19 -23 -19 -32 0 -9 -6 -16 -13 -16
-8 0 -22 -18 -32 -40 -19 -41 -55 -57 -55 -23 0 22 -10 11 -15 -18 -3 -13 -14
-30 -25 -38 -11 -7 -20 -20 -20 -27 0 -8 -7 -14 -15 -14 -11 0 -15 -11 -15
-40 0 -29 -4 -40 -15 -40 -11 0 -15 -11 -15 -40 0 -22 -4 -40 -10 -40 -5 0
-10 -18 -10 -40 0 -29 -4 -40 -15 -40 -11 0 -15 -11 -15 -36 0 -27 -7 -43 -26
-61 -21 -19 -25 -30 -20 -53 4 -23 0 -36 -19 -56 -27 -29 -35 -98 -12 -107 7
-3 5 -6 -5 -6 -14 -1 -18 -10 -18 -41 0 -43 -26 -59 -32 -19 -3 21 -4 20 -31
-5 -23 -22 -28 -33 -26 -66 3 -35 -1 -42 -31 -62 -19 -13 -36 -34 -38 -46 -2
-13 -10 -26 -18 -29 -8 -3 -14 -11 -14 -18 0 -7 -6 -16 -12 -18 -10 -4 -9 -8
2 -16 12 -8 6 -14 -31 -30 -49 -22 -82 -51 -58 -51 7 0 -4 -17 -24 -38 -20
-21 -37 -48 -37 -59 0 -12 -6 -26 -14 -30 -14 -9 -36 -46 -36 -62 0 -8 154
-11 505 -11 l505 0 0 860 c0 473 -2 860 -5 860 -3 0 -13 -17 -22 -37z"/>
<path d="M22320 1427 c0 -18 5 -27 15 -27 13 0 14 4 4 23 -17 33 -19 33 -19 4z"/>
<path d="M1478 913 c7 -3 16 -2 19 1 4 3 -2 6 -13 5 -11 0 -14 -3 -6 -6z"/>
<path d="M1520 857 c0 -10 8 -17 18 -17 9 0 13 4 7 8 -5 4 -13 11 -17 16 -5 5
-8 2 -8 -7z"/>
<path d="M3975 670 c3 -5 10 -10 16 -10 5 0 9 5 9 10 0 6 -7 10 -16 10 -8 0
-12 -4 -9 -10z"/>
<path d="M4606 666 c9 -24 34 -28 34 -6 0 13 -7 20 -20 20 -13 0 -17 -5 -14
-14z"/>
<path d="M21820 450 c0 -5 5 -10 10 -10 6 0 10 5 10 10 0 6 -4 10 -10 10 -5 0
-10 -4 -10 -10z"/>
<path d="M5095 430 c3 -5 10 -10 16 -10 5 0 9 5 9 10 0 6 -7 10 -16 10 -8 0
-12 -4 -9 -10z"/>
<path d="M17855 190 c4 -6 17 -9 30 -7 40 5 41 17 1 17 -23 0 -35 -4 -31 -10z"/>
<path d="M1940 145 c0 -8 -7 -15 -16 -15 -9 0 -12 5 -8 12 4 7 3 8 -4 4 -19
-11 -14 -26 8 -26 18 0 20 -7 20 -60 l0 -60 65 0 c58 0 65 2 65 20 0 11 -4 20
-9 20 -5 0 -7 18 -4 40 4 25 2 40 -5 40 -6 0 -13 -19 -15 -42 l-4 -43 -1 42
c-2 37 -5 42 -32 48 -16 4 -30 13 -30 21 0 8 -7 14 -15 14 -8 0 -15 -7 -15
-15z m30 -51 c0 -14 -4 -23 -10 -19 -5 3 -10 15 -10 26 0 10 5 19 10 19 6 0
10 -12 10 -26z"/>
<path d="M17982 107 c-7 -8 -6 -18 4 -31 13 -19 14 -18 14 12 0 35 -3 38 -18
19z"/>
<path d="M0 25 c0 -22 4 -25 40 -25 32 0 40 4 40 19 0 13 -10 20 -31 25 -47 9
-49 8 -49 -19z"/>
<path d="M2080 20 c0 -17 7 -20 40 -20 33 0 40 3 40 20 0 17 -7 20 -40 20 -33
0 -40 -3 -40 -20z"/>
</g>
</svg>
