<?xml version="1.0" standalone="no"?>
<!DOCTYPE svg PUBLIC "-//W3C//DTD SVG 20010904//EN"
 "http://www.w3.org/TR/2001/REC-SVG-20010904/DTD/svg10.dtd">
<svg version="1.0" xmlns="http://www.w3.org/2000/svg"
 width="900.000000pt" height="600.000000pt" viewBox="0 0 900.000000 600.000000"
 preserveAspectRatio="xMidYMid meet">

<g transform="translate(0.000000,600.000000) scale(0.100000,-0.100000)"
fill="#000000" stroke="none">
<path d="M5188 4642 l-628 -206 0 -868 0 -868 205 0 205 0 0 413 0 413 423
138 c232 76 426 141 430 145 4 4 6 71 5 148 l-3 141 -404 -133 c-222 -73 -414
-136 -427 -139 l-24 -6 0 229 0 230 418 137 c229 75 421 139 425 143 4 4 6 71
5 148 l-3 141 -627 -206z"/>
<path d="M3628 4091 c-97 -32 -191 -104 -266 -205 l-22 -29 0 73 c0 53 -3 71
-12 67 -7 -2 -93 -31 -190 -63 l-178 -59 0 -753 c0 -425 4 -751 9 -748 5 3 89
-30 186 -74 98 -44 180 -80 182 -80 2 0 3 283 3 629 0 603 1 632 20 695 21 67
65 135 111 168 14 10 55 25 93 33 60 13 72 12 106 -1 39 -16 72 -50 106 -114
18 -33 19 -73 24 -814 l5 -779 198 -90 c109 -49 199 -88 202 -86 2 3 5 416 5
919 2 897 1 916 -19 980 -45 142 -141 258 -261 314 -85 39 -212 47 -302 17z"/>
<path d="M2453 3688 l-182 -59 2 -480 2 -479 180 -80 c99 -44 180 -80 181 -80
8 0 12 618 6 890 l-7 346 -182 -58z"/>
</g>
</svg>
